<?xml version="1.0" encoding="utf-8"?>
<svg viewBox="0 0 28 22" xmlns="http://www.w3.org/2000/svg">
  <path style="stroke: rgb(0, 0, 0); fill: rgb(213, 53, 53); stroke-opacity: 0.16;" d="M 22.535 4.735 L 22.423 19.008 C 23.17 21.119 27.111 20.105 26.683 18.893 L 26.458 4.62 C 26.719 3.373 23.141 1.831 22.535 4.735 Z"/>
  <path style="stroke: rgb(0, 0, 0); fill: rgb(204, 204, 204); stroke-opacity: 0.43;" d="M 21.064 4.497 C 20.328 4.119 23.561 -0.125 24.702 0.005 C 25.361 -0.164 28.472 4.103 27.939 4.24 C 27.656 6.744 20.844 6.401 21.064 4.497 Z"/>
  <polygon style="stroke: rgb(0, 0, 0); stroke-opacity: 0.25; fill: rgb(213, 53, 53);" points="3.812 21.195 20.741 20.389 20.181 13.944 3.476 13.598"/>
  <polygon style="stroke: rgb(0, 0, 0); fill: rgb(130, 36, 36); stroke-opacity: 0.42; stroke-width: 0.5px;" points="1.995 8.288 0 10.26 0.113 16.936 3.589 20.964 3.476 15.094"/>
  <polygon style="stroke: rgb(0, 0, 0); fill: rgb(169, 31, 31); stroke-width: 0.4px; stroke-opacity: 0.57;" points="10.539 21.196 10.203 15.324 15.024 15.094 15.358 21.08"/>
  <polygon style="stroke: rgb(0, 0, 0); stroke-opacity: 0.39; fill: rgb(204, 204, 204);" points="1.57 8.073 2.916 15.209 20.853 14.404 18.947 7.498"/>
  <line style="stroke-linecap: round; stroke: rgba(0, 0, 0, 0.28);" x1="1.122" y1="18.893" x2="3.925" y2="21.886"/>
  <line style="stroke-linecap: round; stroke: rgba(0, 0, 0, 0.28);" x1="4.597" y1="22" x2="10.315" y2="21.771"/>
  <line style="stroke-linecap: round; stroke: rgba(0, 0, 0, 0.28);" x1="16.032" y1="21.311" x2="21.189" y2="21.08"/>
</svg>