<?xml version="1.0" encoding="utf-8"?>
<svg viewBox="0 0 98 28" xmlns="http://www.w3.org/2000/svg">
  <g>
    <title>Farm Lake</title>
    <path style="stroke: rgb(56, 112, 246); fill: rgb(51, 153, 255);" d="M 4.867 15.589 C 6.521 14.706 9.088 14.393 10.42 14.094 C 12.401 13.346 11.382 12.753 15.118 10.249 C 18.117 8.239 26.433 6.888 33.912 7.046 C 38.683 5.765 44.221 4.234 46.085 3.629 C 47.16 3.091 70.564 0.679 69.363 1.28 C 69.008 0.667 86.55 2.777 87.303 3.843 C 92.206 4.963 92.863 7.447 86.876 10.677 C 85.788 15.107 65.692 22.842 58.258 23.918 C 55.43 23.714 53.042 23.128 49.075 23.918 C 49.075 27.136 33.057 27.742 33.057 24.131 C 28.544 26.387 9.273 26.296 7.643 25.84 C 4.886 28.313 -3.451 19.743 3.586 19.006 C 3.446 17.396 3.029 16.177 4.867 15.589 Z"/>
  </g>
</svg>