<?xml version="1.0" encoding="utf-8"?>
<svg viewBox="0 0 600 430" xmlns="http://www.w3.org/2000/svg">
  <path style="stroke: rgb(51, 153, 255); fill: rgb(51, 153, 255);" d="M 102.181 121.495 C 94.206 120.798 117.95 134.204 134.579 136.76 L 141.745 137.072 L 140.498 133.333 C 139.838 133.003 125.18 123.805 126.168 124.299 C 127.972 123.938 120.093 121.963 117.757 122.43 C 119.882 123.28 104.21 122.306 102.181 121.495 Z"/>
  <path style="stroke: rgb(51, 153, 255); fill: rgb(51, 153, 255);" d="M 601.289 202.909 C 532.512 168.752 506.618 195.568 417.808 139.757 L 421.506 135.774 C 505.085 182.947 529.38 167.434 602.712 188.97 L 601.289 202.909 Z"/>
  <g transform="matrix(1, 0, 0, 1, -85.078766, -36.451866)">
    <title>Water Layer</title>
    <rect x="85.228" y="37.143" width="602.533" height="340.106" style="fill: none;">
      <title>AlignmentRectangle</title>
    </rect>
    <g transform="matrix(1, 0, 0, 1, -1.540994, 2.568324)">
      <title>Water Layer</title>
      <g transform="matrix(1.004255, 0, 0, 1.030075, -3.653602, -9.651559)">
        <title>Farm River</title>
      </g>
      <g transform="matrix(1.018142, 0, 0, 1.041536, -6.989286, -15.744757)">
        <title>Agriburg River</title>
        <path style="fill: rgb(51, 153, 255); stroke: rgb(51, 153, 255);" d="M 227.956 178.166 C 228.028 177.875 224.412 171.618 233.163 176.618 C 235.492 177.949 222.713 171.875 229.975 175.492 C 234.767 177.879 235.116 178.703 235.764 180.658 C 237.207 185.012 236.289 186.261 236.664 187.583 C 236.832 188.915 236.092 193.456 240.102 196.437 C 242.476 199.89 250.43 199.689 251.973 197.982 C 266.284 190.243 274.036 193.225 276.425 192.355 C 290.779 193.585 294.922 199.179 295.349 201.376 C 296.25 206.01 290.398 210.178 286.136 214.283 C 286.136 214.283 282.624 217.432 289.14 219.121 C 292.22 222.039 313.071 220.42 317.649 220.21 C 323.355 219.948 336.56 219.479 351.421 222.928 C 357.268 223.963 363.789 230.353 362.408 231.235 C 364.797 232.689 365.863 233.003 368.872 248.975 C 372.691 255.533 383.098 256.427 391.684 256.933 C 398.338 257.349 405.24 262.364 410.132 267.878 C 415.205 273.596 420.207 278.913 422.952 279.097 C 434.303 282.546 453.567 273.586 474.279 278.834 C 477.161 276.913 510.213 292.812 510.21 292.814 C 513.898 292.913 536.857 308.186 543.977 311.728 C 548.839 313.67 580.667 335.22 605.393 347.226 C 627.421 359.904 626.192 357.934 642.274 365.496 C 651.279 369.73 667.355 375.756 663.077 373.781 L 630.504 374.14 C 627.832 371.552 606.292 360.921 574.818 341.975 C 546.664 323.521 533.175 317.039 533.507 317.131 C 536.443 318.599 516.532 306.581 516.532 306.581 C 507.294 300.47 505.637 300.69 497.705 296.206 C 490.485 292.007 478.985 285.487 468.752 283.835 C 460.433 283.059 445.336 282.109 435.587 285.874 C 428.289 286.505 429.069 287.981 420.757 283.255 C 408.184 275.272 404.895 267.101 399.527 264.876 C 396.176 261.723 381.075 260.2 372.942 258.566 C 363.126 254.594 364.929 252.063 362.216 242.971 C 361.032 235.419 353.164 226.994 348.292 226.49 C 341.074 225.744 341.819 225.255 335.846 224.535 C 327.257 223.499 330.887 225.094 321.681 224.073 C 301.525 224.808 295.881 224.924 291.412 223.87 C 286.943 222.816 283.378 221.313 283.44 219.947 C 280.427 217.542 280.638 215.667 286.045 210.171 C 290.009 206.31 290.624 205.009 287.903 200.776 C 285.182 196.543 270.264 195.198 260.952 197.83 C 250.869 202.627 254.948 202.217 243.496 203.149 C 238.268 202.791 236.129 201.36 230.741 193.026 C 230.017 191.906 229.566 188.823 229.576 188.276 C 229.642 184.717 229.908 185.752 229.53 182.486 C 229.281 180.338 227.257 178.671 227.956 178.166 Z"/>
      </g>
      <g transform="matrix(1, 0, 0, 1, 6.612285, -0.280406)">
        <title>Canal</title>
        <path style="stroke: rgb(51, 153, 255); fill: rgb(51, 153, 255);" d="M 219.079 168.194 C 219.079 168.823 460.834 174.973 460.834 173.96 L 458.698 176.523 L 225.486 171.611 L 219.079 168.194 Z"/>
      </g>
    </g>
  </g>
  <path style="fill: rgb(51, 153, 255); stroke: rgb(51, 153, 255);" d="M 415.816 138.904 L 420.653 134.637 C 394.908 119.179 377.613 123.742 368.026 123.827 C 355.114 123.942 358.249 118.007 360.03 115.912 C 362.642 112.756 370.096 106.474 369.733 106.474 C 373.641 101.929 346.125 100.937 339.853 103.859 C 335.224 106.015 324.729 106.039 320.622 105.92 C 316.799 105.809 310.508 105.658 310.279 101.354 C 310.605 97.713 319.365 96.065 316.822 94.527 C 312.407 88.339 271.461 76.235 237.456 74.898 L 238.025 77.459 C 237.808 75.721 275.672 81.486 299.535 91.933 C 301.245 92.681 306.405 94.779 307.719 95.665 C 309.007 97.98 305.024 97.997 303.495 100.742 C 302.367 102.766 303.656 104.705 307.42 106.489 C 311.145 108.575 331.963 109.991 339.58 107.328 C 351.876 103.029 366.859 104.027 358.82 110.955 C 356.853 112.65 351.866 116.994 352.081 120.281 C 352.521 131.584 373.192 127.064 393.452 129.997 C 401.047 131.096 412.98 134.38 415.816 138.904 Z"/>
</svg>