<?xml version="1.0" encoding="utf-8"?>
<svg viewBox="0 0 500 500" xmlns="http://www.w3.org/2000/svg">
  <g transform="matrix(1, 0, 0, 1, -190.208435, -111.002426)">
    <title>Water Layer</title>
    <g transform="matrix(1, 0, 0, 1, -0.708218, -2.449867)">
      <title>Farm River</title>
      <path style="stroke: rgb(56, 112, 246); fill: rgb(51, 153, 255);" d="M 326.155 115.159 C 326.375 115.406 352.877 117.331 359.899 119.003 C 370.125 120.795 394.485 128.681 403.038 133.739 C 404.205 134.948 406.683 136.88 401.469 138.264 C 398.051 139.171 397.984 141.71 398.126 141.214 C 400.719 145.104 414.469 143.703 420.978 142.525 C 428.742 141.12 441.971 138.356 449.382 140.787 C 454.951 142.416 457.57 143.652 457.067 145.729 C 455.114 149.243 453.061 151.979 448.345 154.832 C 439.185 160.373 451.197 162.622 451.731 162.57 C 454.462 163.177 462.441 162.559 470.009 162.174 C 479.917 161.67 492.468 164.696 493.589 165.47 L 521.566 180.723 C 525.15 183.302 555.68 198.497 587.651 207.149 C 599.953 210.478 636.568 214.585 640.308 215.107 C 653.992 217.018 692.236 226.278 689.428 225.785 L 689.001 239.453 C 690.573 239.46 670.962 225.788 622.155 218.524 C 608.615 217.48 584.46 212.808 577.52 210.622 C 570.117 208.829 545.577 199.726 542.282 196.527 C 534.59 193.091 515.424 183.662 515.8 183.286 C 504.378 176.35 493.382 169.999 488.646 169.341 C 484.4 166.485 456.99 167.974 449.347 166.201 C 446.753 164.898 442.156 165.423 441.48 161.075 C 440.089 157.739 440.398 155.032 449.169 148.475 C 451.898 146.86 451.034 143.788 444.499 144.145 C 441.483 144.316 435.909 144.783 431.109 145.942 C 422.775 147.176 415.449 147.396 410.179 147.651 C 404.909 147.906 395.033 146.11 393.428 143.136 C 391.115 140.853 392.072 139.137 395.35 138.224 C 398.056 137.738 398.48 135.269 393.833 133.716 C 387.877 130.802 374.789 125.46 358.831 121.993 C 326.168 115.198 327.883 117.185 328.173 117.435 L 326.155 115.159 Z"/>
    </g>
    <g transform="matrix(1.010311, 0, 0, 1.012249, -1.763216, -4.739916)">
      <title>Agriburg River</title>
      <path style="fill: rgb(51, 153, 255); stroke: rgb(39, 124, 255);" d="M 191.851 163.81 C 192.049 163.017 224.896 172.617 230.544 175.918 C 234.078 179.045 234.782 179.916 234.9 194.642 C 234.398 200.827 250.43 199.689 251.973 197.982 C 266.284 190.243 274.036 193.225 276.425 192.355 C 290.779 193.585 294.922 199.179 295.349 201.376 C 296.25 206.01 290.398 210.178 286.136 214.283 C 286.136 214.283 282.624 217.432 289.14 219.121 C 292.22 222.039 313.071 220.42 317.649 220.21 C 323.355 219.948 336.56 219.479 351.421 222.928 C 357.268 223.963 363.789 230.353 362.408 231.235 C 364.797 232.689 365.863 233.003 368.872 248.975 C 372.691 255.533 383.098 256.427 391.684 256.933 C 398.338 257.349 405.24 262.364 410.132 267.878 C 415.205 273.596 420.207 278.913 422.952 279.097 C 434.303 282.546 453.567 273.586 474.279 278.834 C 477.161 276.913 510.213 292.812 510.21 292.814 C 513.898 292.913 536.857 308.186 543.977 311.728 C 548.839 313.67 580.667 335.22 605.393 347.226 C 627.421 359.904 626.192 357.934 642.274 365.496 C 651.279 369.73 667.355 375.756 663.077 373.781 L 630.504 374.14 C 627.832 371.552 606.292 360.921 574.818 341.975 C 546.664 323.521 533.175 317.039 533.507 317.131 C 536.443 318.599 516.532 306.581 516.532 306.581 C 507.294 300.47 505.637 300.69 497.705 296.206 C 490.485 292.007 478.985 285.487 468.752 283.835 C 460.433 283.059 445.336 282.109 435.587 285.874 C 428.289 286.505 429.069 287.981 420.757 283.255 C 408.184 275.272 404.895 267.101 399.527 264.876 C 396.176 261.723 381.075 260.2 372.942 258.566 C 363.126 254.594 364.929 252.063 362.216 242.971 C 361.032 235.419 354.388 226.695 349.516 226.191 C 342.298 225.445 341.819 225.255 335.846 224.535 C 327.257 223.499 330.887 225.094 321.681 224.073 C 301.525 224.808 295.881 224.924 291.412 223.87 C 286.943 222.816 283.378 221.313 283.44 219.947 C 280.427 217.542 280.638 215.667 286.045 210.171 C 290.009 206.31 293.378 204.71 290.657 200.477 C 287.936 196.244 270.264 195.198 260.952 197.83 C 250.869 202.627 254.948 202.217 243.496 203.149 C 238.268 202.791 230.901 202.949 230.741 193.026 C 230.629 185.326 231.733 184.357 228.964 179.602 C 226.195 174.847 189.982 165.161 191.851 163.81 Z"/>
    </g>
    <g transform="matrix(1, 0, 0, 1, 6.612285, -0.280406)">
      <title>Canal</title>
      <path style="stroke: rgb(39, 124, 255); fill: rgb(46, 143, 241);" d="M 220.014 170.686 L 461.769 176.452 L 459.633 179.015 L 226.421 174.103 L 220.014 170.686 Z"/>
    </g>
    <g transform="matrix(1, 0, 0, 1, -0.781705, -1.803593)">
      <title>Farm Lake</title>
      <path style="stroke: rgb(56, 112, 246); fill: rgb(51, 153, 255);" d="M 458.138 176.025 C 459.792 175.142 462.359 174.829 463.691 174.53 C 465.672 173.782 464.653 173.189 468.389 170.685 C 471.388 168.675 479.704 167.324 487.183 167.482 C 491.954 166.201 497.492 164.67 499.356 164.065 C 500.431 163.527 523.835 161.115 522.634 161.716 C 522.279 161.103 539.821 163.213 540.574 164.279 C 545.477 165.399 546.134 167.883 540.147 171.113 C 539.059 175.543 518.963 183.278 511.529 184.354 C 508.701 184.15 506.313 183.564 502.346 184.354 C 502.346 187.572 486.328 188.178 486.328 184.567 C 481.815 186.823 462.544 186.732 460.914 186.276 C 458.157 188.749 449.82 180.179 456.857 179.442 C 456.717 177.832 456.3 176.613 458.138 176.025 Z"/>
    </g>
  </g>
</svg>