<?xml version="1.0" encoding="utf-8"?>
<svg viewBox="326.155 115.159 363.279 124.294" width="363.279" height="124.294" xmlns="http://www.w3.org/2000/svg">
  <g>
    <title>Farm River</title>
    <path style="stroke: rgb(56, 112, 246); fill: rgb(51, 153, 255);" d="M 326.155 115.159 C 326.375 115.406 352.877 117.331 359.899 119.003 C 370.125 120.795 394.485 128.681 403.038 133.739 C 404.205 134.948 406.683 136.88 401.469 138.264 C 398.051 139.171 397.984 141.71 398.126 141.214 C 400.719 145.104 414.469 143.703 420.978 142.525 C 428.742 141.12 441.971 138.356 449.382 140.787 C 454.951 142.416 457.57 143.652 457.067 145.729 C 455.114 149.243 453.061 151.979 448.345 154.832 C 439.185 160.373 451.197 162.622 451.731 162.57 C 454.462 163.177 462.441 162.559 470.009 162.174 C 479.917 161.67 492.468 164.696 493.589 165.47 L 521.566 180.723 C 525.15 183.302 555.68 198.497 587.651 207.149 C 599.953 210.478 636.568 214.585 640.308 215.107 C 653.992 217.018 692.236 226.278 689.428 225.785 L 689.001 239.453 C 690.573 239.46 670.962 225.788 622.155 218.524 C 608.615 217.48 584.46 212.808 577.52 210.622 C 570.117 208.829 545.577 199.726 542.282 196.527 C 534.59 193.091 515.424 183.662 515.8 183.286 C 504.378 176.35 493.382 169.999 488.646 169.341 C 484.4 166.485 456.99 167.974 449.347 166.201 C 446.753 164.898 442.156 165.423 441.48 161.075 C 440.089 157.739 440.398 155.032 449.169 148.475 C 451.898 146.86 451.034 143.788 444.499 144.145 C 441.483 144.316 435.909 144.783 431.109 145.942 C 422.775 147.176 415.449 147.396 410.179 147.651 C 404.909 147.906 395.033 146.11 393.428 143.136 C 391.115 140.853 392.072 139.137 395.35 138.224 C 398.056 137.738 398.48 135.269 393.833 133.716 C 387.877 130.802 374.789 125.46 358.831 121.993 C 326.168 115.198 327.883 117.185 328.173 117.435 L 326.155 115.159 Z"/>
  </g>
</svg>