<?xml version="1.0" encoding="utf-8"?>
<svg viewBox="449.82 161.103 96.314 27.646" width="96.314" height="27.646" xmlns="http://www.w3.org/2000/svg">
  <g>
    <title>Farm Lake</title>
    <path style="stroke: rgb(56, 112, 246); fill: rgb(51, 153, 255);" d="M 458.138 176.025 C 459.792 175.142 462.359 174.829 463.691 174.53 C 465.672 173.782 464.653 173.189 468.389 170.685 C 471.388 168.675 479.704 167.324 487.183 167.482 C 491.954 166.201 497.492 164.67 499.356 164.065 C 500.431 163.527 523.835 161.115 522.634 161.716 C 522.279 161.103 539.821 163.213 540.574 164.279 C 545.477 165.399 546.134 167.883 540.147 171.113 C 539.059 175.543 518.963 183.278 511.529 184.354 C 508.701 184.15 506.313 183.564 502.346 184.354 C 502.346 187.572 486.328 188.178 486.328 184.567 C 481.815 186.823 462.544 186.732 460.914 186.276 C 458.157 188.749 449.82 180.179 456.857 179.442 C 456.717 177.832 456.3 176.613 458.138 176.025 Z"/>
  </g>
</svg>