<?xml version="1.0" encoding="utf-8"?>
<svg viewBox="191.784 163.764 471.293 210.376" width="471.293" height="210.376" xmlns="http://www.w3.org/2000/svg">
  <g transform="matrix(1, 0, 0, 1, 3.796776, 2.378029)">
    <title>Agriburg River</title>
    <path style="fill: rgb(51, 153, 255); stroke: rgb(39, 124, 255);" d="M 191.851 163.81 C 192.049 163.017 224.896 172.617 230.544 175.918 C 234.078 179.045 234.782 179.916 234.9 194.642 C 234.398 200.827 250.43 199.689 251.973 197.982 C 266.284 190.243 274.036 193.225 276.425 192.355 C 290.779 193.585 294.922 199.179 295.349 201.376 C 296.25 206.01 290.398 210.178 286.136 214.283 C 286.136 214.283 282.624 217.432 289.14 219.121 C 292.22 222.039 313.071 220.42 317.649 220.21 C 323.355 219.948 336.56 219.479 351.421 222.928 C 357.268 223.963 363.789 230.353 362.408 231.235 C 364.797 232.689 365.863 233.003 368.872 248.975 C 372.691 255.533 383.098 256.427 391.684 256.933 C 398.338 257.349 405.24 262.364 410.132 267.878 C 415.205 273.596 420.207 278.913 422.952 279.097 C 434.303 282.546 453.567 273.586 474.279 278.834 C 477.161 276.913 510.213 292.812 510.21 292.814 C 513.898 292.913 536.857 308.186 543.977 311.728 C 548.839 313.67 580.667 335.22 605.393 347.226 C 627.421 359.904 626.192 357.934 642.274 365.496 C 651.279 369.73 667.355 375.756 663.077 373.781 L 630.504 374.14 C 627.832 371.552 606.292 360.921 574.818 341.975 C 546.664 323.521 533.175 317.039 533.507 317.131 C 536.443 318.599 516.532 306.581 516.532 306.581 C 507.294 300.47 505.637 300.69 497.705 296.206 C 490.485 292.007 478.985 285.487 468.752 283.835 C 460.433 283.059 445.336 282.109 435.587 285.874 C 428.289 286.505 429.069 287.981 420.757 283.255 C 408.184 275.272 404.895 267.101 399.527 264.876 C 396.176 261.723 381.075 260.2 372.942 258.566 C 363.126 254.594 364.929 252.063 362.216 242.971 C 361.032 235.419 354.388 226.695 349.516 226.191 C 342.298 225.445 341.819 225.255 335.846 224.535 C 327.257 223.499 330.887 225.094 321.681 224.073 C 301.525 224.808 295.881 224.924 291.412 223.87 C 286.943 222.816 283.378 221.313 283.44 219.947 C 280.427 217.542 280.638 215.667 286.045 210.171 C 290.009 206.31 293.378 204.71 290.657 200.477 C 287.936 196.244 270.264 195.198 260.952 197.83 C 250.869 202.627 254.948 202.217 243.496 203.149 C 238.268 202.791 230.901 202.949 230.741 193.026 C 230.629 185.326 231.733 184.357 228.964 179.602 C 226.195 174.847 189.982 165.161 191.851 163.81 Z"/>
  </g>
</svg>