<?xml version="1.0" encoding="utf-8"?>
<svg viewBox="0 0 500 500" xmlns="http://www.w3.org/2000/svg">
  <g id="dam" transform="matrix(1, 0, 0, 1, -110.823738, -112.118309)">
    <path class="st31" d="M130.76,137.43c-2.17-0.81-7.05-4.93-7.05-4.93s-0.02-5.59,4.9-7.88c3.02-1.41,7.03-2.17,9.79-1.53 c1.26,4.68,0.7,8.33-0.43,11.04c-1.74-0.85-5.46-1.52-7.05-0.05C129.86,135.07,130.55,136.49,130.76,137.43z" style="fill: rgb(166, 177, 178);"/>
    <path class="st32" d="M120.44,135.72l4.46-0.99l1.96,3.28l4.29-0.16l-4.49-2.43l-2.95-2.92l-5.19-0.47c0,0,0.2,1.37,0.64,2.79 l0.91,0.57L120.44,135.72z" style="fill: rgb(138, 146, 147);"/>
    <path class="st33" d="M118.52,132.03c-0.31-2.87,1.17-6.01,4.87-8.32c3.87-2.41,10.78-2.86,14.93-0.77 c-3.32-0.51-8.08-0.09-11.2,2.15c-2.41,1.73-3.81,4.84-3.5,7.45C121.46,133.35,119.97,133.35,118.52,132.03z" style="fill: rgb(205, 211, 211); stroke: rgb(40, 40, 39); stroke-linejoin: bevel;"/>
    <polygon class="st34" points="120.07,135.4 119.03,131.89 118.07,132.17 118.79,134.6 &#9;" style="fill: rgb(40, 40, 39);"/>
    <path class="st35" d="M123.68,132.54c1.03,1.81,6.07,5.43,7.83,5.46c-3.4-4.95,3.15-5.95,6.34-3.78c1.2-1.46,1.55-9.85,0.14-11.57" style="fill: none; stroke: rgb(40, 40, 39); stroke-linejoin: bevel;"/>
    <polygon class="st34" points="127.23,138.61 131.2,138.47 131.16,137.47 126.64,137.63 &#9;" style="fill: rgb(40, 40, 39);"/>
    <path class="st36" d="M135.57,126.49c0.4,2.41,0.39,5.29,0.14,6.64" style="fill: none; stroke: rgb(40, 40, 39); stroke-linecap: round;"/>
    <path class="st36" d="M132.13,127.06c0.24,2.32,0.86,4.91,1.34,6.01" style="fill: none; stroke: rgb(40, 40, 39); stroke-linecap: round;"/>
    <path class="st36" d="M128.68,128.76c0.37,1.67,1.93,4.35,2.73,4.97" style="fill: none; stroke: rgb(40, 40, 39); stroke-linecap: round;"/>
    <path class="st36" d="M126.8,131.83c1.14,2.03,2.54,3.01,3.6,3.8" style="fill: none; stroke: rgb(40, 40, 39); stroke-linecap: round;"/>
  </g>
</svg>