<?xml version="1.0" encoding="utf-8"?>
<svg viewBox="0 0 21 17" width="21" height="17" xmlns="http://www.w3.org/2000/svg">
  <path class="st31" d="M 13.148 16.544 C 10.978 15.734 6.098 11.614 6.098 11.614 C 6.098 11.614 6.078 6.024 10.998 3.734 C 14.018 2.324 18.028 1.564 20.788 2.204 C 22.048 6.884 21.488 10.534 20.358 13.244 C 18.618 12.394 14.898 11.724 13.308 13.194 C 12.248 14.184 12.938 15.604 13.148 16.544 Z" style="fill: rgb(166, 177, 178);"/>
  <path class="st32" d="M 3.278 14.833 L 7.738 13.843 L 9.248 17.124 L 13.538 16.964 L 9.048 14.534 L 6.098 11.614 L 0.908 11.144 C 0.908 11.144 1.108 12.514 1.548 13.934 L 2.458 14.504 L 3.278 14.833 Z" style="fill: rgb(138, 146, 147);"/>
  <path class="st33" d="M 0.908 11.144 C 0.598 8.274 2.078 5.134 5.778 2.824 C 9.648 0.414 16.558 -0.036 20.708 2.054 C 17.388 1.544 12.628 1.964 9.508 4.204 C 7.098 5.934 5.698 9.044 6.008 11.654 C 3.848 12.464 2.358 12.464 0.908 11.144 Z" style="fill: rgb(205, 211, 211); stroke: rgb(40, 40, 39); stroke-linejoin: bevel;"/>
  <path class="st35" d="M 6.068 11.654 C 7.098 13.464 12.138 17.084 13.898 17.114 C 10.498 12.164 17.048 11.164 20.238 13.334 C 21.438 11.874 21.788 3.484 20.378 1.764" style="fill: none; stroke: rgb(40, 40, 39); stroke-linejoin: bevel;"/>
  <path class="st36" d="M 17.958 5.604 C 18.358 8.014 18.348 10.894 18.098 12.244" style="fill: none; stroke: rgb(40, 40, 39); stroke-linecap: round;"/>
  <path class="st36" d="M 14.518 6.174 C 14.758 8.494 15.378 11.084 15.858 12.184" style="fill: none; stroke: rgb(40, 40, 39); stroke-linecap: round;"/>
  <path class="st36" d="M 11.068 7.874 C 11.438 9.544 12.998 12.224 13.798 12.844" style="fill: none; stroke: rgb(40, 40, 39); stroke-linecap: round;"/>
  <path class="st36" d="M 9.188 10.944 C 10.328 12.974 11.728 13.954 12.788 14.744" style="fill: none; stroke: rgb(40, 40, 39); stroke-linecap: round;"/>
  <line style="stroke: rgb(0, 0, 0); stroke-linecap: round;" x1="1.001" y1="11.333" x2="2.086" y2="14.33"/>
  <line style="stroke: rgb(0, 0, 0); stroke-linecap: round;" x1="13.197" y1="17.069" x2="9.218" y2="17.225"/>
  <line style="stroke: rgb(0, 0, 0); stroke-linecap: round;" x1="7.616" y1="13.658" x2="9.218" y2="17.173"/>
  <line style="stroke: rgb(0, 0, 0);" x1="1.621" y1="13.452" x2="1.621" y2="12.987"/>
</svg>