<?xml version="1.0" encoding="utf-8"?>
<svg viewBox="453.164 207.694 16.406 25.034" width="16.406" height="25.034" xmlns="http://www.w3.org/2000/svg">
  <g transform="matrix(1, 0, 0, 1, 47.002575, -10.858191)">
    <title>Tree 02</title>
    <ellipse cx="414.724" cy="241.261" rx="6.221" ry="2.325" style="fill: rgb(114, 159, 24);"/>
    <path style="fill: rgb(151, 107, 3);" d="M 414.159 232.024 L 413.782 241.575 C 413.697 240.468 416.606 240.964 416.672 241.827 L 415.541 231.899 L 414.159 232.024 Z"/>
    <path style="fill: rgb(81, 121, 81); stroke: rgb(81, 121, 81);" d="M 406.346 231.623 C 406.161 231.959 407.349 234.037 408.459 233.974 C 409.552 232.652 411.172 234.007 410.093 233.613 C 409.612 233.183 410.455 233.742 411.838 233.813 C 412.649 233.751 412.743 233.707 413.015 233.219 C 413.015 231.013 416.948 232.898 417.575 234.359 C 418.354 234.392 419.214 232.204 419.57 232.649 L 421.508 231.908 C 422.404 232.152 422.567 229.041 421.793 228.83 C 421.112 228.915 421.034 227.414 419.969 225.866 C 418.896 226.07 417.023 226.409 416.358 225.21 C 415.04 222.833 413.718 223.265 413.756 223.073 C 413.788 223.643 412.328 224.268 410.108 222.275 C 409.646 224.605 409.27 225.004 407.225 225.519 C 406.162 225.787 409.045 226.988 408.227 226.892 C 408.703 225.8 407.659 228.611 406.346 231.623 Z"/>
    <path style="fill: rgb(101, 152, 104);" d="M 408.683 226.322 C 408.991 227.69 407.384 231.908 407.144 231.908 C 407.144 231.908 408.007 232.313 410.507 230.198 C 410.892 230.963 414.381 230.78 414.554 230.084 C 414.727 229.388 419.171 231.566 419.171 231.566 C 420.015 231.988 421.503 231.136 421.052 229.457 C 420.601 227.778 419.759 226.565 419.684 226.436 C 417.952 226.661 415.698 226.759 415.865 225.923 C 415.97 225.86 414.512 223.748 413.927 224.099 C 413.832 225.144 411.496 224.891 410.393 223.669 C 409.736 225.077 409.504 225.548 408.683 226.322 Z"/>
    <path style="fill: rgb(102, 153, 5); stroke: rgb(102, 153, 5);" d="M 415.415 218.887 C 416.017 218.753 419.918 220.47 419.386 220.588 C 419.678 221.396 419.132 221.857 419.149 222.952 C 419.416 224.137 420.003 224.788 419.935 225.102 C 419.867 225.416 418.767 226.404 417.489 225.634 C 414.696 226.754 414.85 222.167 414.517 222.432 C 416.071 222.314 412.974 223.25 412.235 223.236 C 411.858 223.555 410.817 221.759 409.838 221.628 C 409.271 223.54 408.199 226.348 407.824 225.369 C 406.409 225.422 408.74 221.238 409.242 220.973 C 411.216 219.729 415.292 218.552 415.415 218.887 Z"/>
  </g>
</svg>