<?xml version="1.0" encoding="utf-8"?>
<svg viewBox="366.177 207.276 55.471 21.893" width="55.471" height="21.893" xmlns="http://www.w3.org/2000/svg">
  <g>
    <title>Tree 04</title>
    <path style="stroke: rgb(60, 90, 90); fill: rgb(97, 167, 132);" d="M 383.165 222.056 C 385.584 222.358 384.621 226.985 383.611 226.859 L 376.548 226.859 L 374.561 225.755 L 372.133 225.534 L 369.926 226.417 L 366.836 224.652 C 366.177 223.004 367.553 220.044 367.719 220.458 L 369.264 220.237 L 369.043 217.809 C 368.456 217.711 371.534 214.839 373.458 215.16 C 372.942 215.16 373.978 210.745 374.782 210.745 C 375.46 209.051 378.89 209.966 378.755 210.304 L 380.3 210.525 L 382.066 209.421 C 381.815 208.667 385.186 209.509 385.377 210.083 L 385.598 208.096 C 385.598 207.371 390.013 207.276 390.013 208.317 C 390.013 207.727 392.882 208.044 392.882 208.317 L 393.324 210.966 C 393.863 210.697 398.741 211.9 398.401 212.07 L 399.504 213.836 C 399.504 213.249 404.581 211.989 404.581 212.732 L 408.775 214.498 C 408.239 214.364 411.341 211.993 412.528 212.29 L 413.19 214.277 L 416.942 214.719 L 419.812 217.147 C 421.073 217.147 421.648 223.327 420.695 223.327 C 420.938 224.055 416.26 225.255 416.059 224.652 L 417.825 226.859 L 414.735 226.859 C 415.737 227.193 410.629 229.169 408.996 228.625 C 408.777 229.063 404.175 228.995 404.802 227.742 L 403.478 222.665 L 401.491 226.417 C 403.589 227.466 395.071 228.344 391.882 226.75 C 391.298 226.75 392.345 223.769 393.499 223.769 L 390.175 222.017 C 390.175 221.387 383.165 221.353 383.165 222.056 Z"/>
  </g>
</svg>