<?xml version="1.0" encoding="utf-8"?>
<svg viewBox="348.867 184.827 93.485 49.393" width="93.485" height="49.393" xmlns="http://www.w3.org/2000/svg">
  <g>
    <title>Tree 03</title>
    <path style="stroke: rgb(19, 38, 19); fill: rgb(51, 102, 51);" d="M 351.293 209.196 L 351.349 203.185 C 351.349 203.402 354.112 203.643 354.112 203.185 C 353.861 203.436 353.895 201.149 354.93 200.114 L 356.755 199.24 C 357.73 200.372 361.682 195.75 361.732 194.243 L 366.087 194.28 L 367.623 196.123 L 369.158 194.28 L 370.386 196.43 L 374.992 193.052 L 376.527 196.43 L 379.598 196.123 L 379.291 199.193 L 383.282 200.728 L 384.959 202.57 L 387.274 202.878 L 391.077 203.156 L 394.178 203.701 C 395.858 203.131 397.888 206.89 396.966 207.203 C 400.47 204.426 404.086 210.789 402.8 211.808 C 401.856 211.256 408.386 212.053 406.004 215.16 C 405.268 215.857 410.635 211.682 410.974 215.127 C 411.07 216.104 416.503 211.958 417.672 215.16 L 422.416 220.691 C 422.567 219.914 425.565 222.098 428.165 220.294 C 429.677 219.245 433.013 219.01 435.11 219.185 C 439.269 219.532 440.02 221.429 438.859 223.757 C 437.699 223.281 431.853 224.673 435.348 226.107 C 435.367 225.394 430.072 224.295 430.036 225.65 C 428.021 223.882 419.509 224.03 421.11 225.434 L 410.601 225.238 C 410.601 225.238 406.971 224.782 406.971 224.475 C 406.971 224.168 403.147 224.389 403.147 224.389 L 398.738 222.667 C 398.738 223.041 393.415 223.736 393.415 220.994 C 392.554 221.639 385.453 220.371 385.962 219.989 C 386.05 219.549 386.833 217.961 386.2 216.645 C 385.36 214.898 383.409 213.822 383.329 214.221 L 383.28 217.588 L 378.527 216.742 L 373.288 215.16 L 374.199 213.438 L 375.176 212.014 C 374.525 209.191 367.35 206.17 367.724 207.79 C 367.206 208.311 368.236 211.726 366.775 211.726 C 366.91 211.861 361.998 212.605 361.789 212.396 C 362.619 212.471 358.439 208.961 355.678 208.71 C 355.135 211.154 351.21 209.57 351.293 209.196 Z" transform="matrix(0.981627, -0.190809, 0.190809, 0.981627, -32.726482, 79.281533)"/>
  </g>
</svg>