<?xml version="1.0" encoding="utf-8"?>
<svg viewBox="0 0 500 500" xmlns="http://www.w3.org/2000/svg">
  <defs>
    <linearGradient id="gradient-1" gradientUnits="userSpaceOnUse" x1="296.718" y1="31.629" x2="296.718" y2="277.501" gradientTransform="matrix(1, 0, 0, 0.457077, 3.282, -11.174823)">
      <stop offset="0" style="stop-color: rgb(81, 196, 254);"/>
      <stop offset="1" style="stop-color: rgb(247, 253, 255);"/>
    </linearGradient>
  </defs>
  <g transform="matrix(1, 0, 0, 1, -86.481934, -35.358387)">
    <title>Scenery Layer</title>
    <g transform="matrix(1, 0, 0, 1, 90.065987, 36.102726)">
      <title>Sky</title>
      <rect y="3.282" width="600" height="115.178" style="fill: url(#gradient-1);"/>
    </g>
    <g transform="matrix(1, 0, 0, 1, -0.441883, -0.588016)">
      <title>Far Hills</title>
      <path style="fill: rgb(171, 171, 131); stroke: rgb(121, 127, 57);" d="M 404.09 87.391 C 403.887 87.188 436.457 83.339 461.082 83.512 C 468.745 83.056 488.146 87.087 487.042 87.988 C 487.838 87.59 497.07 92.219 502.857 98.73 C 507.593 105.447 510.676 107.091 519.268 110.665 C 531.27 115.227 535.614 115.279 546.421 114.843 C 558.647 113.504 562.425 108.997 570.889 109.173 C 588.992 108.69 591.492 113.101 606.759 118.83 C 617.853 123.959 689.034 146.787 689.051 146.77 L 689.349 156.02 C 684.479 170.63 398.663 151.713 403.195 138.117 L 404.09 87.391 Z"/>
      <path style="stroke: rgb(121, 127, 57); fill: rgb(137, 137, 92);" d="M 404.003 88.365 C 404.003 87.629 463.866 82.682 463.866 83.71 C 453.023 85.922 443.781 88.705 444.798 93.687 C 447.974 98.723 450.927 100.894 460.539 102.777 C 472.512 105.123 483.155 106.852 489.806 107.433 C 503.027 108.869 535.636 118.952 548.116 123.397 C 557.871 126.871 590.684 130.584 600.218 130.269 C 608.862 130.334 623.573 134.785 618.62 135.368 L 587.358 159.757 L 411.541 139.803 L 404.003 88.365 Z"/>
      <polygon style="fill: rgb(102, 102, 102); stroke: rgb(102, 102, 102);" points="161.156 96.989 185.89 89.569 202.71 95.01 240.801 80.664 240.306 131.617 170.06 136.564"/>
    </g>
    <g transform="matrix(1, 0, 0, 1, 87.063705, 40.398659)">
      <title>Mount Farm</title>
      <path style="fill: rgb(255, 255, 255); stroke: rgb(236, 235, 234);" d="M 171.501 42.509 L 190.799 34.821 C 190.745 34.767 212.159 17.9 212.607 18.348 C 214.282 17.511 222.029 24.697 220.922 25.251 L 231.802 18.399 C 232.375 18.153 245.939 5.856 244.613 6.424 L 245.397 7.051 L 247.751 5.012 C 248.109 4.535 270.835 17.746 276.776 20.387 C 280.064 22.277 300.559 39.8 300.31 39.842 L 342.671 79.065 L 286.974 92.401 L 208.841 79.222 L 171.501 42.509 Z"/>
      <path style="fill: rgb(224, 224, 224);" d="M 203.664 33.252 L 200.945 44.133 L 232.371 28.651 L 235.616 38.754 L 240.903 32.049 L 238.343 21.642 L 245.711 15.68 L 246.182 9.562 L 248.378 7.993 L 247.751 5.325 L 245.397 7.522 L 244.613 6.581 L 231.836 18.963 L 220.452 25.565 L 209.626 28.702 L 209.626 23.054 L 206.956 22.686 L 191.897 34.508 L 203.664 33.252 Z"/>
      <path style="fill: rgb(153, 153, 153); stroke-dashoffset: -1px; stroke-width: 0px;" d="M 221.346 63.742 L 225.001 59.924 L 231.793 58.691 C 232.272 60.366 233.198 55.416 234.947 52.337 C 239.277 44.714 240.741 33.039 240.533 32.311 L 235.827 37.99 L 232.965 28.621 C 235.966 26.703 205.893 41.246 201.04 43.878 L 203.664 33.09 L 191.897 34.507 L 177.62 40.156 C 193.257 50.31 212.005 57.567 221.346 63.742 Z"/>
      <path style="fill: rgb(239, 239, 239); stroke-dashoffset: -1px; stroke-width: 0px;" d="M 244.927 44.235 L 241.789 39.575 L 240.008 31.945 L 237.553 21.485 L 245.711 15.837 L 246.339 9.405 L 248.692 7.836 L 248.221 14.425 L 251.987 17.877 L 249.32 23.211 L 255.438 34.351 L 244.927 44.235 Z"/>
      <path style="fill: rgb(204, 204, 204); stroke-dashoffset: -1px; stroke-width: 0px;" d="M 223.432 66.827 L 221.236 63.846 L 225.001 59.924 L 232.218 58.512 C 231.178 58.772 235.218 52.075 235.827 51.923 L 240.22 32.625 L 241.475 38.744 L 244.77 44.235 L 255.281 34.351 L 275.991 44.235 L 267.887 28.491 L 278.345 33.932 C 278.345 33.785 301.123 40.493 301.123 40.626 L 314.587 53.335 L 313.646 54.59 L 293.563 47.373 L 285.72 44.281 L 291.994 48.942 L 292.94 53.178 C 292.94 53.178 283.365 50.824 283.365 50.667 C 283.365 50.51 291.524 57.728 291.524 57.728 L 299.53 59.505 L 305.278 64.843 L 293.877 63.533 L 281.169 57.1 L 271.127 50.51 L 273.324 68.082 C 273.234 67.721 246.036 57.301 246.339 58.512 L 223.432 66.827 Z"/>
      <path style="fill: rgb(239, 239, 239); stroke-dashoffset: -1px; stroke-width: 0px;" d="M 262.969 19.76 L 267.362 28.232 L 278.345 34.194 L 288.7 36.861 L 279.6 30.899 C 277.377 31.455 261.943 20.017 262.969 19.76 Z"/>
      <path style="fill: rgb(153, 153, 0); stroke-dashoffset: -1px; stroke-width: 0px;" d="M 424.569 89.577 C 426.686 90.106 395.35 71.362 392.092 70.592 C 388.834 69.822 360.601 66.745 361.655 66.357 C 359.783 68.241 299.623 41.786 300.937 40.312 L 314.587 53.71 L 314.587 53.284 C 312.824 53.872 284.728 43.656 284.875 43.607 L 292.066 49.318 L 292.465 53.143 L 304.817 64.587 L 292.854 63.309 L 302.816 70.73 L 340.293 79.805 L 424.569 89.577 Z"/>
      <path style="fill: rgb(137, 137, 92); stroke-dashoffset: -1px; stroke-width: 0px;" d="M 316.626 74.044 L 312.547 76.712 L 283.679 72.946 L 273.324 67.926 L 271.072 50.192 C 269.92 50.374 288.258 60.366 294.034 63.426 L 303.423 70.661 L 316.626 74.044 Z"/>
      <path style="fill: rgb(153, 153, 0); stroke-dashoffset: -1px; stroke-width: 0px;" d="M 295.76 83.144 L 270.5 80.32 L 240.377 68.396 L 242.103 61.493 L 246.827 58.445 C 247.437 58.14 274.098 67.292 273.279 67.701 L 283.791 72.991 L 295.76 83.144 Z"/>
      <path style="fill: rgb(137, 137, 92); stroke-dashoffset: -1px; stroke-width: 0px;" d="M 231.434 80.163 L 279.6 88.479 L 271.598 79.536 L 247.123 69.808 C 244.457 68.082 240.753 63.531 246.863 58.353 L 223.432 66.514 L 231.434 80.163 Z"/>
      <polyline style="stroke: rgb(0, 0, 0); fill: none; stroke-linecap: round;" points="232.956 29.332 224.883 39.559 217.347 47.094"/>
      <polyline style="fill: rgb(216, 216, 216); stroke: rgb(0, 0, 0); stroke-linecap: round;" points="240.059 32.691 236.198 50.442"/>
      <polyline style="fill: rgb(216, 216, 216); stroke: rgb(0, 0, 0); stroke-linecap: round;" points="255.563 35.252 264.714 55.438 272.788 65.933"/>
      <polyline style="fill: rgb(216, 216, 216); stroke: rgb(0, 0, 0); stroke-linecap: round;" points="274.133 40.097 278.439 48.978"/>
      <polyline style="fill: rgb(216, 216, 216); stroke: rgb(0, 0, 0); stroke-linecap: round;" points="233.715 54.594 236.346 50.488"/>
    </g>
    <g transform="matrix(1, 0, 0, 1, -173.67717, -38.691753)">
      <title>Mount Middle</title>
      <path style="fill: rgb(255, 255, 255); stroke: rgb(202, 213, 219);" d="M 429.212 103.922 C 431.662 106.469 438.118 113.355 448.07 118.463 C 463.416 126.339 483.711 136.606 488.199 138.556 C 494.65 144.75 510.267 164.519 510.497 165.439 C 508.929 167.007 561.757 190.879 562.684 189.952 C 562.684 190.049 508.916 178.709 508.916 178.408 L 510.655 181.096 C 509.625 183.67 488.352 175.255 488.989 173.663 L 482.823 179.83 C 486.342 179.83 510.122 190.268 509.39 190.268 L 454.356 197.701 L 356.624 152.63 C 356.831 154.489 394.381 137.389 395.589 135.295 C 399.572 131.651 398.614 130.063 404.067 126.379 C 411.994 121.516 422.369 108.262 429.212 103.922 Z"/>
      <path style="fill: rgb(224, 224, 224); stroke-width: 0px;" d="M 395.782 139.101 L 407.424 130.965 L 401.399 143.491 L 419.778 132.168 L 426.085 121.16 L 421.498 121.634 L 426.717 113.411 L 429.247 104.08 C 428.751 103.584 414.119 118.208 414.382 118.471 L 402.46 128.047 C 401.84 128.047 398.527 132.738 397.021 135.298 C 395.394 138.064 395.506 139.101 395.782 139.101 Z"/>
      <path style="fill: rgb(239, 239, 239); stroke-width: 0px;" d="M 432.568 155.338 L 432.252 141.086 L 424.819 132.546 L 425.926 121.002 L 418.656 133.016 L 428.442 144.048 C 428.442 144.048 432.568 155.654 432.568 155.338 Z"/>
      <path style="fill: rgb(239, 239, 239); stroke-width: 0px;" d="M 436.68 118.313 L 443.006 128.434 L 460.402 128.909 C 460.402 128.909 446.011 124.639 446.011 124.481 C 446.011 124.323 436.68 118.313 436.68 118.313 Z"/>
      <path style="fill: rgb(153, 153, 153); stroke-width: 0px;" d="M 406.159 168.761 L 413.591 159.589 L 419.284 131.755 L 402.521 142.351 L 407.898 130.49 L 396.354 138.714 L 398.032 133.608 L 395.989 135.457 L 381.488 143.361 L 357.609 152.946 L 375.126 160.732 L 383.228 149.942 C 383.228 149.942 395.42 145.11 398.659 144.623 C 401.898 144.136 389.237 151.602 389.237 151.523 C 389.237 151.365 384.386 164.781 384.386 164.781 L 401.443 172.732 L 406.159 168.761 Z"/>
      <path style="fill: rgb(204, 204, 204); stroke-width: 0px;" d="M 417.545 161.012 L 423.219 146.855 L 433.201 161.644 L 432.41 154.844 L 429.266 143.008 L 418.892 131.718 L 413.534 159.272 L 401.566 172.111 C 401.209 174.434 416.889 165.277 417.545 161.012 Z"/>
      <path style="fill: rgb(204, 204, 204); stroke-width: 0px;" d="M 433.517 161.802 L 435.415 148.993 L 436.68 150.574 L 436.68 140.295 L 458.188 150.574 L 443.006 128.593 L 460.402 128.751 L 465.304 127.486 L 473.873 131.975 C 473.873 133.081 464.15 136.274 464.15 135.273 L 478.272 152.947 L 466.906 147.7 L 465.142 149.324 C 466.06 149.477 460.308 155.125 458.734 154.863 C 459.455 154.863 459.745 171.994 459.207 171.994 C 459.207 171.994 456.194 173.821 456.194 173.663 C 456.194 173.505 453.602 160.38 453.602 160.38 C 450.515 158.166 449.372 157.375 449.49 157.375 L 441.899 150.89 L 447.851 168.699 L 439.45 164.213 L 438.42 155.793 L 433.517 161.802 Z"/>
      <path style="fill: rgb(153, 153, 0); stroke-width: 0px;" d="M 469.89 137.29 L 483.965 149.784 L 489.342 161.17 C 488.168 162.344 509.623 181.981 510.314 181.29 L 508.794 178.091 L 561.139 190.268 C 561.465 189.63 517.915 170.833 510.849 166.705 C 507.894 164.979 504.486 159.404 500.348 153.954 C 494.589 146.372 488.247 138.701 487.128 139.03 L 472.679 131.698 C 472.679 131.698 469.89 137.607 469.89 137.29 Z"/>
      <path style="fill: rgb(137, 137, 92); stroke-width: 0px;" d="M 488.077 165.756 L 489.026 173.505 C 494.267 178.293 509.073 181.693 510.384 181.412 L 489.5 161.328 L 484.124 149.942 C 484.124 149.942 470.206 137.607 470.206 137.449 C 470.206 137.291 472.262 132.862 472.262 132.862 L 462.932 134.918 L 477.956 152.63 L 488.077 165.756 Z"/>
      <path style="fill: rgb(153, 153, 0); stroke-width: 0px;" d="M 463.722 180.622 C 463.924 180.622 470.425 169.71 470.206 169.71 C 470.63 170.346 470.467 158.478 470.048 157.849 C 470.048 157.184 465.405 146.971 465.405 147.57 L 478.43 153.105 L 488.464 165.72 L 489.026 173.663 L 483.016 179.673 C 482.265 179.373 470.307 177.879 471.63 178.408 L 463.722 180.622 Z"/>
      <path style="fill: rgb(137, 137, 92); stroke-width: 0px;" d="M 459.85 178.954 L 464.039 180.147 C 464.649 180.452 471.257 170.709 470.206 170.184 C 471.3 170.622 471.379 158.729 470.365 158.323 C 471.14 158.614 467.953 148.826 465.189 147.79 L 462.99 151.399 C 463.174 152.318 456.057 154.963 455.82 153.78 C 456.474 153.78 459.589 171.766 458.978 171.766 L 453.869 174.746 L 459.85 178.954 Z"/>
      <path style="fill: rgb(137, 137, 92); stroke-width: 0px;" d="M 432.094 176.509 L 449.806 180.78 L 456.582 178.369 L 447.668 172.757 L 444.818 166.111 L 439.43 163.072 L 438.439 155.596 L 433.162 161.726 L 422.965 145.423 L 425.552 158.64 L 424.287 167.693 L 432.094 176.509 Z"/>
      <path style="fill: rgb(102, 123, 70); stroke-width: 0px;" d="M 472.104 195.487 L 490.449 192.799 L 509.426 190.268 L 483.332 179.198 L 471.788 178.091 L 463.723 179.989 L 443.006 164.807 L 446.801 173.347 L 455.183 178.249 L 449.49 180.147 L 432.094 176.194 L 425.136 168.445 L 426.161 156.818 L 423.238 146.463 L 417.545 161.012 L 401.415 172.556 L 454.708 197.859 L 472.104 195.487 Z"/>
      <polyline style="stroke: rgb(0, 0, 0); fill: none; stroke-linecap: round;" points="469.898 129.965 488.262 139.089 511.786 168.233 524.066 174.23" transform=""/>
      <polyline style="stroke: rgb(0, 0, 0); fill: none; stroke-linecap: round;" points="443.436 129.007 467.425 148.426 478.848 152.996 484.555 160.712"/>
    </g>
    <g transform="matrix(1, 0, 0, 1, -192.188019, -111.212059)">
      <title>Mount Agriburg</title>
      <path style="fill: rgb(255, 255, 255); stroke: rgb(228, 227, 227);" d="M 283.263 371.423 L 309.516 380.283 L 399.432 374.705 L 490.662 388.159 L 433.561 351.077 L 402.058 295.289 L 432.249 300.212 L 424.701 289.71 L 499.194 284.788 L 596.002 292.336 L 569.421 282.163 L 547.434 267.395 L 527.744 260.832 L 507.726 265.426 C 508.71 264.442 497.657 255.478 496.897 256.238 C 496.897 255.573 486.067 254.517 486.067 255.582 L 469.003 261.16 C 469.003 262.793 463.752 261.785 458.173 258.863 C 452.65 254.678 450.008 251.585 444.062 248.69 C 427.176 244.882 377.603 224.148 378.758 221.453 C 371.769 214.814 336.113 189.73 322.466 181.089 C 317.63 186.581 307.191 198.782 307.547 199.138 C 307.747 198.938 299.642 193.588 299.015 194.215 L 283.263 217.186 L 283.263 371.423 Z"/>
      <path style="stroke: rgb(122, 99, 30); fill: rgb(171, 171, 131);" d="M 563.527 288.063 L 549.419 281.009 L 524.023 271.133 L 514.147 271.603 L 507.092 265.489 L 527.315 260.786 L 549.889 267.841 L 571.052 282.89 L 596.918 292.766 L 563.527 288.063 Z"/>
      <path style="fill: rgb(224, 224, 224); stroke-width: 0px;" d="M 312.797 236.548 L 316.735 222.109 L 314.11 224.406 L 321.33 202.419 L 317.064 197.497 L 322.642 191.262 L 321.329 182.729 L 307.547 199.794 L 296.139 198.286 L 283.439 217.602 L 283.526 223.573 L 303.28 209.967 L 300.655 223.75 L 314.11 213.577 L 306.234 233.923 L 294.092 243.768 L 284.247 249.153 L 283.263 268.052 L 312.797 236.548 Z"/>
      <path style="fill: rgb(153, 153, 153); stroke-width: 0px;" d="M 283.854 251.86 L 306.562 234.251 L 314.438 213.248 L 300.655 223.75 L 303.937 209.639 L 284.007 222.765 L 283.854 251.86 Z"/>
      <path style="fill: rgb(239, 239, 239); stroke-width: 0px;" d="M 344.629 212.592 L 335.769 196.84 L 352.177 208.654 L 343.317 204.716 L 344.629 212.592 Z"/>
      <path style="fill: rgb(204, 204, 204); stroke-width: 0px;" d="M 356.213 218.784 L 374.12 221.409 L 352.505 208.982 L 343.645 205.701 L 343.503 214.518 L 356.213 218.784 Z"/>
      <path style="fill: rgb(137, 137, 92); stroke-width: 0px;" d="M 321.986 236.548 L 325.268 221.124 L 330.566 207.863 L 313.454 223.422 L 316.431 223.766 L 312.469 235.892 L 283.263 268.38 L 321.986 236.548 Z"/>
      <path style="fill: rgb(153, 153, 103); stroke-width: 0px;" d="M 378.473 254.554 L 356.443 246.393 L 332.487 229.657 L 321.559 235.868 L 325.639 219.811 L 330.278 208.283 L 345.942 214.561 L 350.208 230.969 L 363.334 230.313 C 363.446 230.201 383.323 234.609 380.071 237.861 L 390.572 247.377 L 406.324 253.284 L 432.249 255.582 L 450.954 268.708 L 472.941 274.943 L 498.537 272.318 L 524.462 271.005 L 552.028 281.506 L 407.122 283.628 L 381.078 275.271 C 375.517 285.281 378.355 254.766 378.473 254.554 Z"/>
      <path style="fill: rgb(176, 115, 0); stroke-width: 0px;" d="M 362.022 226.047 L 373.508 225.719 L 380.967 237.028 L 399.761 237.817 L 411.574 247.377 L 458.655 258.633 L 447.256 248.264 C 445.762 249.758 378.094 225.398 379.086 224.406 L 373.508 221.781 L 354.474 217.843 L 345.942 215.218 L 362.022 226.047 Z"/>
      <path style="fill: rgb(176, 115, 0); stroke-width: 0px;" d="M 466.312 263.698 L 497.028 272.646 L 513.721 271.99 L 498.537 256.894 L 487.052 255.253 L 466.312 263.698 Z"/>
      <path style="fill: rgb(155, 102, 0); stroke-width: 0px;" d="M 377.676 235.192 L 389.347 247.377 L 407.636 253.613 L 431.734 256.008 L 448.843 268.15 L 472.613 275.271 L 498.866 272.974 L 469.243 262.659 L 452.311 253.93 L 413.543 247.706 L 398.776 237.204 L 377.676 235.192 Z"/>
      <path style="fill: rgb(153, 153, 153); stroke-width: 0px;" d="M 283.919 268.052 L 330.89 227.589 L 358.477 246.569 L 381.055 254.597 L 387.619 275.599 L 376.176 273.959 L 369.569 261.488 L 343.316 250.635 L 326.909 236.548 L 283.919 268.052 Z"/>
      <path style="fill: rgb(153, 153, 153); stroke-width: 0px;" d="M 323.627 246.065 C 323.627 246.616 306.89 252.94 306.89 251.031 L 283.591 268.326 L 284.247 305.462 L 302.953 285.116 L 303.609 276.584 L 314.766 262.801 L 323.627 246.065 Z"/>
      <path style="fill: rgb(204, 204, 204); stroke-width: 0px;" d="M 308.924 304.531 L 310.828 281.746 L 314.766 277 L 312.185 294.217 L 313.66 312.09 L 327.477 305.79 L 335.681 281.003 L 328.221 255.582 L 332.224 250.899 L 331.086 244.359 L 325.924 250.659 L 322.686 246.721 L 314.045 263.261 L 303.182 275.315 L 302.056 285.772 L 283.919 305.649 L 284.575 324.168 L 308.924 304.531 Z"/>
      <path style="fill: rgb(255, 255, 255); stroke-width: 0px;" d="M 325.268 266.411 L 319.689 294.961 L 321.002 302.837 C 325.259 302.309 327.933 266.073 325.268 266.411 Z"/>
      <path style="fill: rgb(155, 102, 0); stroke-width: 0px;" d="M 299.769 336.933 L 289.018 339.808 L 284.247 337.622 L 284.575 324.168 L 308.531 304.15 L 310.677 281.266 L 314.918 277.088 L 312.797 292.664 L 313.782 311.697 L 325.924 306.447 L 334.456 276.912 L 328.221 255.582 L 329.862 253.284 L 336.425 276.912 L 341.348 284.788 L 336.097 305.889 L 308.521 319.157 L 299.769 336.933 Z"/>
      <path style="fill: rgb(176, 115, 0); stroke-width: 0px;" d="M 317.064 318.917 L 338.066 314.323 L 346.838 288.791 L 336.753 267.439 L 333.242 247.98 L 329.534 252.628 L 337.004 280.706 L 340.692 285.116 L 335.44 305.134 L 308.893 317.986 L 300.381 332.7 L 317.064 318.917 Z"/>
      <path style="fill: rgb(137, 137, 92); stroke-width: 0px;" d="M 335.156 334.439 C 335.156 335.482 358.412 343.663 358.412 342.971 L 381.055 344.185 L 353.818 332.7 C 346.682 328.398 340.34 319.865 347.911 309.4 C 347.911 309.4 353.161 299.555 353.161 299.883 C 353.161 300.211 352.417 284.132 352.417 284.132 L 337.081 267.724 L 346.314 289.24 L 337.738 313.994 L 314.57 319.387 L 296.804 336.648 C 296.589 336.218 312.509 326.828 319.689 327.406 C 323.48 325.334 335.516 332.277 335.156 334.439 Z"/>
      <path style="fill: none; stroke-width: 0px;" d="M 326.908 236.548 L 322.314 247.377 L 307.547 252.3 L 326.908 236.548 Z"/>
      <path style="fill: rgb(153, 153, 153); stroke-width: 0px;" d="M 370.211 296.557 L 362.501 283.071 L 352.906 270.6 L 341.74 260.938 L 331.131 245.076 L 336.391 268.005 L 350.599 284.588 L 370.211 296.557 Z"/>
      <path style="fill: rgb(155, 102, 0); stroke-width: 0px;" d="M 378.816 297.758 L 377.133 290.501 L 362.712 278.964 L 353.916 264.399 L 368.048 268.437 L 374.97 278.676 L 398.861 286.415 L 399.918 283.146 L 397.466 280.551 L 376.989 273.917 L 363.433 263.534 L 342.235 256.901 L 335.313 253.151 L 339.495 261.948 L 352.906 270.312 L 365.452 288.626 L 378.816 297.758 Z"/>
      <path style="fill: rgb(176, 115, 0); stroke-width: 0px;" d="M 330.747 245.124 L 343.244 249.835 L 370.211 261.804 L 376.268 273.196 L 362.712 263.534 L 341.332 258.963 L 335.536 252.094 L 330.747 245.124 Z"/>
      <path style="fill: rgb(176, 115, 0); stroke-width: 0px;" d="M 391.409 309.392 L 382.036 286.03 L 370.067 276.469 L 359.602 276.401 L 375.32 289.742 L 378.805 297.316 L 391.409 309.392 Z"/>
      <path style="fill: rgb(153, 153, 103); stroke-width: 0px;" d="M 421.693 353.375 C 423.457 358.667 381.651 346.017 381.027 344.146 C 380.865 344.47 352.025 332.929 352.474 332.032 C 344.989 327.068 341.042 318 347.282 310.257 L 352.906 300.163 L 351.032 284.551 L 370.355 296.337 L 362.342 285.334 L 378.575 295.981 L 391.698 309.536 L 392.707 313.862 C 394.677 323.771 420.715 354.136 421.693 353.375 Z"/>
      <path style="fill: rgb(102, 123, 70); stroke-width: 0px;" d="M 394.438 290.212 L 374.97 278.676 L 367.904 266.989 L 353.099 264.304 L 362.317 278.281 L 371.365 278.964 L 382.65 288.093 L 390.575 310.621 C 386.751 313.489 419.311 355.054 421.549 353.375 C 419.139 358.539 391.476 296.559 394.438 290.212 Z"/>
      <path style="fill: rgb(152, 153, 102); stroke-width: 0px;" d="M 417.943 294.394 L 408.282 290.068 L 400.639 281.127 L 395.874 280.118 L 399.918 282.714 L 398.62 285.598 L 372.976 277.591 L 393.748 291.115 L 417.943 294.394 Z"/>
      <path style="fill: rgb(102, 123, 70); stroke-width: 0px;" d="M 297.964 370.391 L 295.224 353.952 L 315.557 326.841 L 289.6 338.81 L 284.12 337.368 L 284.264 371.401 L 300.271 377.169 L 297.964 370.391 Z"/>
      <path style="fill: rgb(137, 137, 92); stroke-width: 0px;" d="M 334.015 371.545 L 322.478 365.921 C 307.898 359.207 310.274 349.454 310.22 345.011 C 310.789 339.543 313.778 329.909 315.268 326.841 C 314.069 326.341 293.887 349.441 294.359 354.528 C 294.102 355.682 294.52 367.218 298.685 373.275 L 300.127 377.313 L 310.077 380.63 L 341.514 378.323 L 334.015 371.545 Z"/>
      <path style="fill: rgb(153, 153, 103); stroke-width: 0px;" d="M 452.986 375.006 C 453.9 375.082 422.632 365.626 376.989 354.528 C 373.972 354.76 347.803 344.871 349.734 344.722 C 349.078 345.05 339.341 339.392 336.034 334.195 C 332.783 329.279 323.059 323.823 315.268 326.552 C 310.68 335.024 306.823 352.214 313.25 359.72 C 321.529 367.592 331.777 371.476 334.592 372.122 L 341.37 378.611 L 402.369 374.621 L 452.986 375.006 Z"/>
      <path style="fill: none; stroke-width: 0px;" d="M 552.59 280.99 L 568.206 281.858 L 547.674 268.555 L 527.141 261.903 L 509.5 265.952 L 516.152 271.158 C 516.152 271.158 525.405 271.447 525.405 271.158 C 525.405 270.869 552.011 280.99 552.59 280.99 Z"/>
      <path style="fill: rgb(102, 123, 70); stroke-width: 0px;" d="M 450.658 374.597 C 419.731 372.819 320.584 344.237 334.495 331.801 C 334.495 333.969 358.01 342.78 358.01 341.206 C 358.01 342.433 379.174 343.899 379.174 342.618 C 379.958 345.752 421.951 355.708 421.5 353.904 L 431.376 351.553 L 491.103 387.295 L 441.722 379.77 L 402.218 374.597 L 450.658 374.597 Z"/>
      <polyline style="stroke: rgb(0, 0, 0); fill: none; stroke-linecap: round;" points="314.272 212.817 306.277 234.45 293.58 243.386"/>
      <polyline style="fill: rgb(216, 216, 216); stroke: rgb(0, 0, 0); stroke-linecap: round;" points="308.159 250.91 285.114 269.722"/>
      <polyline style="fill: rgb(216, 216, 216); stroke: rgb(0, 0, 0); stroke-linecap: round;" points="352.366 269.722 364.594 286.182 370.708 296.058"/>
      <polyline style="fill: rgb(216, 216, 216); stroke: rgb(0, 0, 0); stroke-linecap: round;" points="365.064 288.063 375.891 295.358 389.049 305.464"/>
      <polyline style="fill: none; stroke: rgb(142, 101, 21); stroke-width: 2px; stroke-linecap: round;" points="381.054 225.044 437.96 247.619 445.954 248.089 467.588 262.198 485.459 255.143 499.098 256.554 513.677 271.603"/>
      <polyline style="fill: none; stroke: rgb(122, 99, 30); stroke-width: 2px;" points="398.925 283.36 403.157 282.42 409.742 290.885 419.618 294.177 419.618 294.177"/>
      <path style="fill: none; stroke: rgb(114, 75, 1); stroke-linecap: round;" d="M 285.114 338.134 C 292.816 339.756 310.299 329.396 310.448 329.208 C 314.531 323.684 338.412 330.08 336.376 334.152 C 322.277 341.744 390.921 374.384 391.4 374.126"/>
      <path style="fill: none; stroke: rgb(114, 75, 1); stroke-linecap: round;" d="M 426.672 370.364 C 425.46 371.466 325.576 344.226 336.657 334.152"/>
    </g>
    <g transform="matrix(0.990373, 0, 0, 1, -54.966873, -68.420822)">
      <title>Valley</title>
      <path d="M 148.394 315.245 C 147 320.151 185.153 335.32 192.28 322.589 C 210.472 315.142 231.358 317.532 231.358 319.983 L 252.5 326.909 L 272.531 327.838 L 311.971 334.329 L 340.317 336.794 C 339.103 337.469 286.315 311.756 297.278 310.378 C 293.922 310.378 290.028 315.522 285.082 309.929 C 275.763 299.39 263.089 271.087 265.119 271.087 C 263.823 271.087 257.371 245.387 258.968 245.387 C 258.968 243.973 285.87 251.585 285.87 251.585 L 273.53 246.105 L 267.791 236.598 C 266.495 238.699 375.386 238.429 377.874 234.5 C 377.828 234.409 415.448 232.441 416.571 234.701 L 451.105 243.038 C 450.374 243.586 442.904 242.861 435.577 239.535 C 424.654 234.577 413.031 225.876 416.325 223.406 C 416.325 223.406 425.235 231.404 390.306 218.285 C 379.452 214.208 367.996 208.546 367.996 208.874 C 367.998 208.525 372.821 198.256 372.991 199.279 L 395.209 207.86 L 393.415 203.975 L 442.135 215.637 C 437.263 217.725 399.051 197.538 397.652 198.345 L 385.422 181.712 L 433.336 189.535 L 418.353 184.507 L 440.218 190.462 L 427.606 180.527 L 460.747 182.195 L 464.14 177.401 C 461.717 179.824 499.173 188.035 501.583 185.625 C 502.635 187.204 544.463 187.239 543.586 185.923 L 571.613 195.816 L 553.912 181.965 L 634.55 198.29 L 659.627 200.269 L 685.195 201.258 L 720.106 210.657 L 751.469 215.097 L 750.369 443.721 L 147.306 441.685 L 148.394 315.245 Z" style="fill: rgb(126, 154, 75); stroke-width: 0px;"/>
      <path style="fill: rgb(102, 123, 70); stroke-width: 0px;" d="M 185.571 398.013 C 186.39 397.473 253.759 443.245 253.72 442.462 L 147.875 441.708 L 148.607 377.94 C 150.34 376.785 189.455 395.423 185.571 398.013 Z"/>
      <path style="fill: rgb(133, 183, 76); stroke-width: 0px;" d="M 233.421 394.614 C 232.829 396.39 259.157 402.952 259.52 401.864 C 257.073 398.54 276.255 415.048 280.907 416.364 C 279.441 417.83 302.35 425.369 302.656 425.063 C 287.946 417.345 319.146 435.601 334.192 439.925 C 349.238 444.249 555.307 442.463 555.307 442.463 C 555.937 436.789 608.18 418.626 607.868 421.438 C 608.141 419.803 651.3 422.562 650.641 426.513 C 651.193 425.961 680.775 439.877 683.265 442.099 L 748.15 442.825 C 747.047 444.664 673.518 407.539 669.49 404.764 C 665.462 401.989 649.163 394.36 640.854 380.115 C 634.321 368.915 662.772 359.98 658.615 341.692 C 662.251 328.991 606.221 319.282 618.742 318.855 C 642.305 322.965 656.664 324.647 676.015 319.217 C 688.786 318.13 725.753 308.706 720.963 308.706 L 719.514 288.406 C 718.739 289.181 630.287 275.05 631.43 273.907 C 627.883 274.414 566.229 244.643 569.445 244.184 L 544.796 232.222 L 508.185 231.134 C 493.393 227.829 503.802 218.99 509.997 213.372 C 518.636 205.537 497.192 208.195 477.393 210.381 C 460.758 212.218 445.571 210.999 455.129 206.072 C 473.024 196.847 444.653 197.096 426.988 192.348 L 388.927 183.648 L 456.725 215.989 L 447.131 219.486 L 453.087 226.059 L 419.376 221.709 L 471.936 242.371 C 469.834 245.159 270.617 237.591 283.082 239.471 C 296.781 241.537 282.911 279.578 318.911 261.735 C 328.628 256.919 345.268 261.201 351.008 266.181 C 357.789 272.064 333.712 280.368 342.416 284.628 C 353.447 290.027 369.1 288.851 380.458 288.127 C 413.969 285.992 424.725 298.531 423.726 311.968 C 413.365 311.695 413.156 299.383 387.317 298.913 C 358.581 298.391 338.255 292.459 320.973 284.551 C 297.571 273.842 285.875 272.052 282.356 274.632 C 270.494 276.249 279.328 290.721 294.904 304.918 C 312.309 320.784 339.312 336.396 348.328 335.166 C 351.297 342.351 303.836 338.911 269.743 333.866 C 235.959 328.868 210.872 325.155 200.206 331.524 C 196.364 339.5 146.664 322.648 147.041 316.989 L 147.133 338.429 L 166.763 345.831 C 166.251 346.343 173.989 352.337 184.358 359.961 C 192.087 365.643 191.578 361.296 200.543 366.164 C 211.972 372.37 232.997 394.093 233.421 394.614 Z"/>
    </g>
  </g>
</svg>