<?xml version="1.0" encoding="utf-8"?>
<svg viewBox="161.156 80.664 528.193 89.966" width="528.193" height="89.966" xmlns="http://www.w3.org/2000/svg">
  <g transform="matrix(1, 0, 0, 1, 3.983022, 2.876627)">
    <title>FarHills</title>
    <path style="fill: rgb(171, 171, 131); stroke: rgb(121, 127, 57);" d="M 404.09 87.391 C 403.887 87.188 436.457 83.339 461.082 83.512 C 468.745 83.056 488.146 87.087 487.042 87.988 C 487.838 87.59 497.07 92.219 502.857 98.73 C 507.593 105.447 510.676 107.091 519.268 110.665 C 531.27 115.227 535.614 115.279 546.421 114.843 C 558.647 113.504 562.425 108.997 570.889 109.173 C 588.992 108.69 591.492 113.101 606.759 118.83 C 617.853 123.959 689.034 146.787 689.051 146.77 L 689.349 156.02 C 684.479 170.63 398.663 151.713 403.195 138.117 L 404.09 87.391 Z"/>
    <path style="stroke: rgb(121, 127, 57); fill: rgb(137, 137, 92);" d="M 404.003 88.365 C 404.003 87.629 463.866 82.682 463.866 83.71 C 453.023 85.922 443.781 88.705 444.798 93.687 C 447.974 98.723 450.927 100.894 460.539 102.777 C 472.512 105.123 483.155 106.852 489.806 107.433 C 503.027 108.869 535.636 118.952 548.116 123.397 C 557.871 126.871 590.684 130.584 600.218 130.269 C 608.862 130.334 623.573 134.785 618.62 135.368 L 587.358 159.757 L 411.541 139.803 L 404.003 88.365 Z"/>
    <polygon style="fill: rgb(102, 102, 102); stroke: rgb(102, 102, 102);" points="161.156 96.989 185.89 89.569 202.71 95.01 240.801 80.664 240.306 131.617 170.06 136.564"/>
  </g>
</svg>