<?xml version="1.0" encoding="utf-8"?>
<svg viewBox="171.501 5.012 253.171 87.389" width="253.171" height="87.389" xmlns="http://www.w3.org/2000/svg">
  <g>
    <title>Mount Farm</title>
    <path style="fill: rgb(255, 255, 255); stroke: rgb(236, 235, 234);" d="M 171.501 42.509 L 190.799 34.821 C 190.745 34.767 212.159 17.9 212.607 18.348 C 214.282 17.511 222.029 24.697 220.922 25.251 L 231.802 18.399 C 232.375 18.153 245.939 5.856 244.613 6.424 L 245.397 7.051 L 247.751 5.012 C 248.109 4.535 270.835 17.746 276.776 20.387 C 280.064 22.277 300.559 39.8 300.31 39.842 L 342.671 79.065 L 286.974 92.401 L 208.841 79.222 L 171.501 42.509 Z"/>
    <path style="fill: rgb(224, 224, 224);" d="M 203.664 33.252 L 200.945 44.133 L 232.371 28.651 L 235.616 38.754 L 240.903 32.049 L 238.343 21.642 L 245.711 15.68 L 246.182 9.562 L 248.378 7.993 L 247.751 5.325 L 245.397 7.522 L 244.613 6.581 L 231.836 18.963 L 220.452 25.565 L 209.626 28.702 L 209.626 23.054 L 206.956 22.686 L 191.897 34.508 L 203.664 33.252 Z"/>
    <path style="fill: rgb(153, 153, 153); stroke-dashoffset: -1px; stroke-width: 0px;" d="M 221.346 63.742 L 225.001 59.924 L 231.793 58.691 C 232.272 60.366 233.198 55.416 234.947 52.337 C 239.277 44.714 240.741 33.039 240.533 32.311 L 235.827 37.99 L 232.965 28.621 C 235.966 26.703 205.893 41.246 201.04 43.878 L 203.664 33.09 L 191.897 34.507 L 177.62 40.156 C 193.257 50.31 212.005 57.567 221.346 63.742 Z"/>
    <path style="fill: rgb(239, 239, 239); stroke-dashoffset: -1px; stroke-width: 0px;" d="M 244.927 44.235 L 241.789 39.575 L 240.008 31.945 L 237.553 21.485 L 245.711 15.837 L 246.339 9.405 L 248.692 7.836 L 248.221 14.425 L 251.987 17.877 L 249.32 23.211 L 255.438 34.351 L 244.927 44.235 Z"/>
    <path style="fill: rgb(204, 204, 204); stroke-dashoffset: -1px; stroke-width: 0px;" d="M 223.432 66.827 L 221.236 63.846 L 225.001 59.924 L 232.218 58.512 C 231.178 58.772 235.218 52.075 235.827 51.923 L 240.22 32.625 L 241.475 38.744 L 244.77 44.235 L 255.281 34.351 L 275.991 44.235 L 267.887 28.491 L 278.345 33.932 C 278.345 33.785 301.123 40.493 301.123 40.626 L 314.587 53.335 L 313.646 54.59 L 293.563 47.373 L 285.72 44.281 L 291.994 48.942 L 292.94 53.178 C 292.94 53.178 283.365 50.824 283.365 50.667 C 283.365 50.51 291.524 57.728 291.524 57.728 L 299.53 59.505 L 305.278 64.843 L 293.877 63.533 L 281.169 57.1 L 271.127 50.51 L 273.324 68.082 C 273.234 67.721 246.036 57.301 246.339 58.512 L 223.432 66.827 Z"/>
    <path style="fill: rgb(239, 239, 239); stroke-dashoffset: -1px; stroke-width: 0px;" d="M 262.969 19.76 L 267.362 28.232 L 278.345 34.194 L 288.7 36.861 L 279.6 30.899 C 277.377 31.455 261.943 20.017 262.969 19.76 Z"/>
    <path style="fill: rgb(153, 153, 0); stroke-dashoffset: -1px; stroke-width: 0px;" d="M 424.569 89.577 C 426.686 90.106 395.35 71.362 392.092 70.592 C 388.834 69.822 360.601 66.745 361.655 66.357 C 359.783 68.241 299.623 41.786 300.937 40.312 L 314.587 53.71 L 314.587 53.284 C 312.824 53.872 284.728 43.656 284.875 43.607 L 292.066 49.318 L 292.465 53.143 L 304.817 64.587 L 292.854 63.309 L 302.816 70.73 L 340.293 79.805 L 424.569 89.577 Z"/>
    <path style="fill: rgb(137, 137, 92); stroke-dashoffset: -1px; stroke-width: 0px;" d="M 316.626 74.044 L 312.547 76.712 L 283.679 72.946 L 273.324 67.926 L 271.072 50.192 C 269.92 50.374 288.258 60.366 294.034 63.426 L 303.423 70.661 L 316.626 74.044 Z"/>
    <path style="fill: rgb(153, 153, 0); stroke-dashoffset: -1px; stroke-width: 0px;" d="M 295.76 83.144 L 270.5 80.32 L 240.377 68.396 L 242.103 61.493 L 246.827 58.445 C 247.437 58.14 274.098 67.292 273.279 67.701 L 283.791 72.991 L 295.76 83.144 Z"/>
    <path style="fill: rgb(137, 137, 92); stroke-dashoffset: -1px; stroke-width: 0px;" d="M 231.434 80.163 L 279.6 88.479 L 271.598 79.536 L 247.123 69.808 C 244.457 68.082 240.753 63.531 246.863 58.353 L 223.432 66.514 L 231.434 80.163 Z"/>
    <polyline style="stroke: rgb(0, 0, 0); fill: none; stroke-linecap: round;" points="232.956 29.332 224.883 39.559 217.347 47.094"/>
    <polyline style="fill: rgb(216, 216, 216); stroke: rgb(0, 0, 0); stroke-linecap: round;" points="240.059 32.691 236.198 50.442"/>
    <polyline style="fill: rgb(216, 216, 216); stroke: rgb(0, 0, 0); stroke-linecap: round;" points="255.563 35.252 264.714 55.438 272.788 65.933"/>
    <polyline style="fill: rgb(216, 216, 216); stroke: rgb(0, 0, 0); stroke-linecap: round;" points="274.133 40.097 278.439 48.978"/>
    <polyline style="fill: rgb(216, 216, 216); stroke: rgb(0, 0, 0); stroke-linecap: round;" points="233.715 54.594 236.346 50.488"/>
  </g>
</svg>