<?xml version="1.0" encoding="utf-8"?>
<svg viewBox="356.818 103.922 206.06 93.937" width="206.06" height="93.937" xmlns="http://www.w3.org/2000/svg">
  <g>
    <title>Mount Middle</title>
    <path style="fill: rgb(255, 255, 255); stroke: rgb(202, 213, 219);" d="M 429.212 103.922 C 431.662 106.469 438.118 113.355 448.07 118.463 C 463.416 126.339 483.711 136.606 488.199 138.556 C 494.65 144.75 510.267 164.519 510.497 165.439 C 508.929 167.007 561.757 190.879 562.684 189.952 C 562.684 190.049 508.916 178.709 508.916 178.408 L 510.655 181.096 C 509.625 183.67 488.352 175.255 488.989 173.663 L 482.823 179.83 C 486.342 179.83 510.122 190.268 509.39 190.268 L 454.356 197.701 L 356.624 152.63 C 356.831 154.489 394.381 137.389 395.589 135.295 C 399.572 131.651 398.614 130.063 404.067 126.379 C 411.994 121.516 422.369 108.262 429.212 103.922 Z"/>
    <path style="fill: rgb(224, 224, 224); stroke-width: 0px;" d="M 395.782 139.101 L 407.424 130.965 L 401.399 143.491 L 419.778 132.168 L 426.085 121.16 L 421.498 121.634 L 426.717 113.411 L 429.247 104.08 C 428.751 103.584 414.119 118.208 414.382 118.471 L 402.46 128.047 C 401.84 128.047 398.527 132.738 397.021 135.298 C 395.394 138.064 395.506 139.101 395.782 139.101 Z"/>
    <path style="fill: rgb(239, 239, 239); stroke-width: 0px;" d="M 432.568 155.338 L 432.252 141.086 L 424.819 132.546 L 425.926 121.002 L 418.656 133.016 L 428.442 144.048 C 428.442 144.048 432.568 155.654 432.568 155.338 Z"/>
    <path style="fill: rgb(239, 239, 239); stroke-width: 0px;" d="M 436.68 118.313 L 443.006 128.434 L 460.402 128.909 C 460.402 128.909 446.011 124.639 446.011 124.481 C 446.011 124.323 436.68 118.313 436.68 118.313 Z"/>
    <path style="fill: rgb(153, 153, 153); stroke-width: 0px;" d="M 406.159 168.761 L 413.591 159.589 L 419.284 131.755 L 402.521 142.351 L 407.898 130.49 L 396.354 138.714 L 398.032 133.608 L 395.989 135.457 L 381.488 143.361 L 357.609 152.946 L 375.126 160.732 L 383.228 149.942 C 383.228 149.942 395.42 145.11 398.659 144.623 C 401.898 144.136 389.237 151.602 389.237 151.523 C 389.237 151.365 384.386 164.781 384.386 164.781 L 401.443 172.732 L 406.159 168.761 Z"/>
    <path style="fill: rgb(204, 204, 204); stroke-width: 0px;" d="M 417.545 161.012 L 423.219 146.855 L 433.201 161.644 L 432.41 154.844 L 429.266 143.008 L 418.892 131.718 L 413.534 159.272 L 401.566 172.111 C 401.209 174.434 416.889 165.277 417.545 161.012 Z"/>
    <path style="fill: rgb(204, 204, 204); stroke-width: 0px;" d="M 433.517 161.802 L 435.415 148.993 L 436.68 150.574 L 436.68 140.295 L 458.188 150.574 L 443.006 128.593 L 460.402 128.751 L 465.304 127.486 L 473.873 131.975 C 473.873 133.081 464.15 136.274 464.15 135.273 L 478.272 152.947 L 466.906 147.7 L 465.142 149.324 C 466.06 149.477 460.308 155.125 458.734 154.863 C 459.455 154.863 459.745 171.994 459.207 171.994 C 459.207 171.994 456.194 173.821 456.194 173.663 C 456.194 173.505 453.602 160.38 453.602 160.38 C 450.515 158.166 449.372 157.375 449.49 157.375 L 441.899 150.89 L 447.851 168.699 L 439.45 164.213 L 438.42 155.793 L 433.517 161.802 Z"/>
    <path style="fill: rgb(153, 153, 0); stroke-width: 0px;" d="M 469.89 137.29 L 483.965 149.784 L 489.342 161.17 C 488.168 162.344 509.623 181.981 510.314 181.29 L 508.794 178.091 L 561.139 190.268 C 561.465 189.63 517.915 170.833 510.849 166.705 C 507.894 164.979 504.486 159.404 500.348 153.954 C 494.589 146.372 488.247 138.701 487.128 139.03 L 472.679 131.698 C 472.679 131.698 469.89 137.607 469.89 137.29 Z"/>
    <path style="fill: rgb(137, 137, 92); stroke-width: 0px;" d="M 488.077 165.756 L 489.026 173.505 C 494.267 178.293 509.073 181.693 510.384 181.412 L 489.5 161.328 L 484.124 149.942 C 484.124 149.942 470.206 137.607 470.206 137.449 C 470.206 137.291 472.262 132.862 472.262 132.862 L 462.932 134.918 L 477.956 152.63 L 488.077 165.756 Z"/>
    <path style="fill: rgb(153, 153, 0); stroke-width: 0px;" d="M 463.722 180.622 C 463.924 180.622 470.425 169.71 470.206 169.71 C 470.63 170.346 470.467 158.478 470.048 157.849 C 470.048 157.184 465.405 146.971 465.405 147.57 L 478.43 153.105 L 488.464 165.72 L 489.026 173.663 L 483.016 179.673 C 482.265 179.373 470.307 177.879 471.63 178.408 L 463.722 180.622 Z"/>
    <path style="fill: rgb(137, 137, 92); stroke-width: 0px;" d="M 459.85 178.954 L 464.039 180.147 C 464.649 180.452 471.257 170.709 470.206 170.184 C 471.3 170.622 471.379 158.729 470.365 158.323 C 471.14 158.614 467.953 148.826 465.189 147.79 L 462.99 151.399 C 463.174 152.318 456.057 154.963 455.82 153.78 C 456.474 153.78 459.589 171.766 458.978 171.766 L 453.869 174.746 L 459.85 178.954 Z"/>
    <path style="fill: rgb(137, 137, 92); stroke-width: 0px;" d="M 432.094 176.509 L 449.806 180.78 L 456.582 178.369 L 447.668 172.757 L 444.818 166.111 L 439.43 163.072 L 438.439 155.596 L 433.162 161.726 L 422.965 145.423 L 425.552 158.64 L 424.287 167.693 L 432.094 176.509 Z"/>
    <path style="fill: rgb(102, 123, 70); stroke-width: 0px;" d="M 472.104 195.487 L 490.449 192.799 L 509.426 190.268 L 483.332 179.198 L 471.788 178.091 L 463.723 179.989 L 443.006 164.807 L 446.801 173.347 L 455.183 178.249 L 449.49 180.147 L 432.094 176.194 L 425.136 168.445 L 426.161 156.818 L 423.238 146.463 L 417.545 161.012 L 401.415 172.556 L 454.708 197.859 L 472.104 195.487 Z"/>
    <polyline style="stroke: rgb(0, 0, 0); fill: none; stroke-linecap: round;" points="469.898 129.965 488.262 139.089 511.786 168.233 524.066 174.23" transform=""/>
    <polyline style="stroke: rgb(0, 0, 0); fill: none; stroke-linecap: round;" points="443.436 129.007 467.425 148.426 478.848 152.996 484.555 160.712"/>
  </g>
</svg>