<?xml version="1.0" encoding="utf-8"?>
<svg viewBox="283.263 179.646 313.655 208.513" width="313.655" height="208.513" xmlns="http://www.w3.org/2000/svg">
  <g>
    <title>Mount Agriburg</title>
    <path style="fill: rgb(255, 255, 255); stroke: rgb(228, 227, 227);" d="M 283.263 371.423 L 309.516 380.283 L 399.432 374.705 L 490.662 388.159 L 433.561 351.077 L 402.058 295.289 L 432.249 300.212 L 424.701 289.71 L 499.194 284.788 L 596.002 292.336 L 569.421 282.163 L 547.434 267.395 L 527.744 260.832 L 507.726 265.426 C 508.71 264.442 497.657 255.478 496.897 256.238 C 496.897 255.573 486.067 254.517 486.067 255.582 L 469.003 261.16 C 469.003 262.793 463.752 261.785 458.173 258.863 C 452.65 254.678 450.008 251.585 444.062 248.69 C 427.176 244.882 377.603 224.148 378.758 221.453 C 371.769 214.814 336.113 189.73 322.466 181.089 C 317.63 186.581 307.191 198.782 307.547 199.138 C 307.747 198.938 299.642 193.588 299.015 194.215 L 283.263 217.186 L 283.263 371.423 Z"/>
    <path style="stroke: rgb(122, 99, 30); fill: rgb(171, 171, 131);" d="M 563.527 288.063 L 549.419 281.009 L 524.023 271.133 L 514.147 271.603 L 507.092 265.489 L 527.315 260.786 L 549.889 267.841 L 571.052 282.89 L 596.918 292.766 L 563.527 288.063 Z"/>
    <path style="fill: rgb(224, 224, 224); stroke-width: 0px;" d="M 312.797 236.548 L 316.735 222.109 L 314.11 224.406 L 321.33 202.419 L 317.064 197.497 L 322.642 191.262 L 321.329 182.729 L 307.547 199.794 L 296.139 198.286 L 283.439 217.602 L 283.526 223.573 L 303.28 209.967 L 300.655 223.75 L 314.11 213.577 L 306.234 233.923 L 294.092 243.768 L 284.247 249.153 L 283.263 268.052 L 312.797 236.548 Z"/>
    <path style="fill: rgb(153, 153, 153); stroke-width: 0px;" d="M 283.854 251.86 L 306.562 234.251 L 314.438 213.248 L 300.655 223.75 L 303.937 209.639 L 284.007 222.765 L 283.854 251.86 Z"/>
    <path style="fill: rgb(239, 239, 239); stroke-width: 0px;" d="M 344.629 212.592 L 335.769 196.84 L 352.177 208.654 L 343.317 204.716 L 344.629 212.592 Z"/>
    <path style="fill: rgb(204, 204, 204); stroke-width: 0px;" d="M 356.213 218.784 L 374.12 221.409 L 352.505 208.982 L 343.645 205.701 L 343.503 214.518 L 356.213 218.784 Z"/>
    <path style="fill: rgb(137, 137, 92); stroke-width: 0px;" d="M 321.986 236.548 L 325.268 221.124 L 330.566 207.863 L 313.454 223.422 L 316.431 223.766 L 312.469 235.892 L 283.263 268.38 L 321.986 236.548 Z"/>
    <path style="fill: rgb(153, 153, 103); stroke-width: 0px;" d="M 378.473 254.554 L 356.443 246.393 L 332.487 229.657 L 321.559 235.868 L 325.639 219.811 L 330.278 208.283 L 345.942 214.561 L 350.208 230.969 L 363.334 230.313 C 363.446 230.201 383.323 234.609 380.071 237.861 L 390.572 247.377 L 406.324 253.284 L 432.249 255.582 L 450.954 268.708 L 472.941 274.943 L 498.537 272.318 L 524.462 271.005 L 552.028 281.506 L 407.122 283.628 L 381.078 275.271 C 375.517 285.281 378.355 254.766 378.473 254.554 Z"/>
    <path style="fill: rgb(176, 115, 0); stroke-width: 0px;" d="M 362.022 226.047 L 373.508 225.719 L 380.967 237.028 L 399.761 237.817 L 411.574 247.377 L 458.655 258.633 L 447.256 248.264 C 445.762 249.758 378.094 225.398 379.086 224.406 L 373.508 221.781 L 354.474 217.843 L 345.942 215.218 L 362.022 226.047 Z"/>
    <path style="fill: rgb(176, 115, 0); stroke-width: 0px;" d="M 466.312 263.698 L 497.028 272.646 L 513.721 271.99 L 498.537 256.894 L 487.052 255.253 L 466.312 263.698 Z"/>
    <path style="fill: rgb(155, 102, 0); stroke-width: 0px;" d="M 377.676 235.192 L 389.347 247.377 L 407.636 253.613 L 431.734 256.008 L 448.843 268.15 L 472.613 275.271 L 498.866 272.974 L 469.243 262.659 L 452.311 253.93 L 413.543 247.706 L 398.776 237.204 L 377.676 235.192 Z"/>
    <path style="fill: rgb(153, 153, 153); stroke-width: 0px;" d="M 283.919 268.052 L 330.89 227.589 L 358.477 246.569 L 381.055 254.597 L 387.619 275.599 L 376.176 273.959 L 369.569 261.488 L 343.316 250.635 L 326.909 236.548 L 283.919 268.052 Z"/>
    <path style="fill: rgb(153, 153, 153); stroke-width: 0px;" d="M 323.627 246.065 C 323.627 246.616 306.89 252.94 306.89 251.031 L 283.591 268.326 L 284.247 305.462 L 302.953 285.116 L 303.609 276.584 L 314.766 262.801 L 323.627 246.065 Z"/>
    <path style="fill: rgb(204, 204, 204); stroke-width: 0px;" d="M 308.924 304.531 L 310.828 281.746 L 314.766 277 L 312.185 294.217 L 313.66 312.09 L 327.477 305.79 L 335.681 281.003 L 328.221 255.582 L 332.224 250.899 L 331.086 244.359 L 325.924 250.659 L 322.686 246.721 L 314.045 263.261 L 303.182 275.315 L 302.056 285.772 L 283.919 305.649 L 284.575 324.168 L 308.924 304.531 Z"/>
    <path style="fill: rgb(255, 255, 255); stroke-width: 0px;" d="M 325.268 266.411 L 319.689 294.961 L 321.002 302.837 C 325.259 302.309 327.933 266.073 325.268 266.411 Z"/>
    <path style="fill: rgb(155, 102, 0); stroke-width: 0px;" d="M 299.769 336.933 L 289.018 339.808 L 284.247 337.622 L 284.575 324.168 L 308.531 304.15 L 310.677 281.266 L 314.918 277.088 L 312.797 292.664 L 313.782 311.697 L 325.924 306.447 L 334.456 276.912 L 328.221 255.582 L 329.862 253.284 L 336.425 276.912 L 341.348 284.788 L 336.097 305.889 L 308.521 319.157 L 299.769 336.933 Z"/>
    <path style="fill: rgb(176, 115, 0); stroke-width: 0px;" d="M 317.064 318.917 L 338.066 314.323 L 346.838 288.791 L 336.753 267.439 L 333.242 247.98 L 329.534 252.628 L 337.004 280.706 L 340.692 285.116 L 335.44 305.134 L 308.893 317.986 L 300.381 332.7 L 317.064 318.917 Z"/>
    <path style="fill: rgb(137, 137, 92); stroke-width: 0px;" d="M 335.156 334.439 C 335.156 335.482 358.412 343.663 358.412 342.971 L 381.055 344.185 L 353.818 332.7 C 346.682 328.398 340.34 319.865 347.911 309.4 C 347.911 309.4 353.161 299.555 353.161 299.883 C 353.161 300.211 352.417 284.132 352.417 284.132 L 337.081 267.724 L 346.314 289.24 L 337.738 313.994 L 314.57 319.387 L 296.804 336.648 C 296.589 336.218 312.509 326.828 319.689 327.406 C 323.48 325.334 335.516 332.277 335.156 334.439 Z"/>
    <path style="fill: none; stroke-width: 0px;" d="M 326.908 236.548 L 322.314 247.377 L 307.547 252.3 L 326.908 236.548 Z"/>
    <path style="fill: rgb(153, 153, 153); stroke-width: 0px;" d="M 370.211 296.557 L 362.501 283.071 L 352.906 270.6 L 341.74 260.938 L 331.131 245.076 L 336.391 268.005 L 350.599 284.588 L 370.211 296.557 Z"/>
    <path style="fill: rgb(155, 102, 0); stroke-width: 0px;" d="M 378.816 297.758 L 377.133 290.501 L 362.712 278.964 L 353.916 264.399 L 368.048 268.437 L 374.97 278.676 L 398.861 286.415 L 399.918 283.146 L 397.466 280.551 L 376.989 273.917 L 363.433 263.534 L 342.235 256.901 L 335.313 253.151 L 339.495 261.948 L 352.906 270.312 L 365.452 288.626 L 378.816 297.758 Z"/>
    <path style="fill: rgb(176, 115, 0); stroke-width: 0px;" d="M 330.747 245.124 L 343.244 249.835 L 370.211 261.804 L 376.268 273.196 L 362.712 263.534 L 341.332 258.963 L 335.536 252.094 L 330.747 245.124 Z"/>
    <path style="fill: rgb(176, 115, 0); stroke-width: 0px;" d="M 391.409 309.392 L 382.036 286.03 L 370.067 276.469 L 359.602 276.401 L 375.32 289.742 L 378.805 297.316 L 391.409 309.392 Z"/>
    <path style="fill: rgb(153, 153, 103); stroke-width: 0px;" d="M 421.693 353.375 C 423.457 358.667 381.651 346.017 381.027 344.146 C 380.865 344.47 352.025 332.929 352.474 332.032 C 344.989 327.068 341.042 318 347.282 310.257 L 352.906 300.163 L 351.032 284.551 L 370.355 296.337 L 362.342 285.334 L 378.575 295.981 L 391.698 309.536 L 392.707 313.862 C 394.677 323.771 420.715 354.136 421.693 353.375 Z"/>
    <path style="fill: rgb(102, 123, 70); stroke-width: 0px;" d="M 394.438 290.212 L 374.97 278.676 L 367.904 266.989 L 353.099 264.304 L 362.317 278.281 L 371.365 278.964 L 382.65 288.093 L 390.575 310.621 C 386.751 313.489 419.311 355.054 421.549 353.375 C 419.139 358.539 391.476 296.559 394.438 290.212 Z"/>
    <path style="fill: rgb(152, 153, 102); stroke-width: 0px;" d="M 417.943 294.394 L 408.282 290.068 L 400.639 281.127 L 395.874 280.118 L 399.918 282.714 L 398.62 285.598 L 372.976 277.591 L 393.748 291.115 L 417.943 294.394 Z"/>
    <path style="fill: rgb(102, 123, 70); stroke-width: 0px;" d="M 297.964 370.391 L 295.224 353.952 L 315.557 326.841 L 289.6 338.81 L 284.12 337.368 L 284.264 371.401 L 300.271 377.169 L 297.964 370.391 Z"/>
    <path style="fill: rgb(137, 137, 92); stroke-width: 0px;" d="M 334.015 371.545 L 322.478 365.921 C 307.898 359.207 310.274 349.454 310.22 345.011 C 310.789 339.543 313.778 329.909 315.268 326.841 C 314.069 326.341 293.887 349.441 294.359 354.528 C 294.102 355.682 294.52 367.218 298.685 373.275 L 300.127 377.313 L 310.077 380.63 L 341.514 378.323 L 334.015 371.545 Z"/>
    <path style="fill: rgb(153, 153, 103); stroke-width: 0px;" d="M 452.986 375.006 C 453.9 375.082 422.632 365.626 376.989 354.528 C 373.972 354.76 347.803 344.871 349.734 344.722 C 349.078 345.05 339.341 339.392 336.034 334.195 C 332.783 329.279 323.059 323.823 315.268 326.552 C 310.68 335.024 306.823 352.214 313.25 359.72 C 321.529 367.592 331.777 371.476 334.592 372.122 L 341.37 378.611 L 402.369 374.621 L 452.986 375.006 Z"/>
    <path style="fill: none; stroke-width: 0px;" d="M 552.59 280.99 L 568.206 281.858 L 547.674 268.555 L 527.141 261.903 L 509.5 265.952 L 516.152 271.158 C 516.152 271.158 525.405 271.447 525.405 271.158 C 525.405 270.869 552.011 280.99 552.59 280.99 Z"/>
    <path style="fill: rgb(102, 123, 70); stroke-width: 0px;" d="M 450.658 374.597 C 419.731 372.819 320.584 344.237 334.495 331.801 C 334.495 333.969 358.01 342.78 358.01 341.206 C 358.01 342.433 379.174 343.899 379.174 342.618 C 379.958 345.752 421.951 355.708 421.5 353.904 L 431.376 351.553 L 491.103 387.295 L 441.722 379.77 L 402.218 374.597 L 450.658 374.597 Z"/>
    <polyline style="stroke: rgb(0, 0, 0); fill: none; stroke-linecap: round;" points="314.272 212.817 306.277 234.45 293.58 243.386"/>
    <polyline style="fill: rgb(216, 216, 216); stroke: rgb(0, 0, 0); stroke-linecap: round;" points="308.159 250.91 285.114 269.722"/>
    <polyline style="fill: rgb(216, 216, 216); stroke: rgb(0, 0, 0); stroke-linecap: round;" points="352.366 269.722 364.594 286.182 370.708 296.058"/>
    <polyline style="fill: rgb(216, 216, 216); stroke: rgb(0, 0, 0); stroke-linecap: round;" points="365.064 288.063 375.891 295.358 389.049 305.464"/>
    <polyline style="fill: none; stroke: rgb(142, 101, 21); stroke-width: 2px; stroke-linecap: round;" points="381.054 225.044 437.96 247.619 445.954 248.089 467.588 262.198 485.459 255.143 499.098 256.554 513.677 271.603"/>
    <polyline style="fill: none; stroke: rgb(122, 99, 30); stroke-width: 2px;" points="398.925 283.36 403.157 282.42 409.742 290.885 419.618 294.177 419.618 294.177"/>
    <path style="fill: none; stroke: rgb(114, 75, 1); stroke-linecap: round;" d="M 285.114 338.134 C 292.816 339.756 310.299 329.396 310.448 329.208 C 314.531 323.684 338.412 330.08 336.376 334.152 C 322.277 341.744 390.921 374.384 391.4 374.126"/>
    <path style="fill: none; stroke: rgb(114, 75, 1); stroke-linecap: round;" d="M 426.672 370.364 C 425.46 371.466 325.576 344.226 336.657 334.152"/>
  </g>
</svg>