<?xml version="1.0" encoding="utf-8"?>
<svg viewBox="89.647 109.102 601.486 267.263" width="601.486" height="267.263" xmlns="http://www.w3.org/2000/svg">
  <g transform="matrix(0.990373, 0, 0, 1, -54.353317, -55.275765)">
    <title>Valley</title>
    <path d="M 148.394 315.245 C 147 320.151 185.153 335.32 192.28 322.589 C 210.472 315.142 231.358 317.532 231.358 319.983 L 252.5 326.909 L 272.531 327.838 L 311.971 334.329 L 340.317 336.794 C 339.103 337.469 286.315 311.756 297.278 310.378 C 293.922 310.378 290.028 315.522 285.082 309.929 C 275.763 299.39 263.089 271.087 265.119 271.087 C 263.823 271.087 257.371 245.387 258.968 245.387 C 258.968 243.973 285.87 251.585 285.87 251.585 L 273.53 246.105 L 267.791 236.598 C 266.495 238.699 375.386 238.429 377.874 234.5 C 377.828 234.409 415.448 232.441 416.571 234.701 L 451.105 243.038 C 450.374 243.586 442.904 242.861 435.577 239.535 C 424.654 234.577 413.031 225.876 416.325 223.406 C 416.325 223.406 425.235 231.404 390.306 218.285 C 379.452 214.208 367.996 208.546 367.996 208.874 C 367.998 208.525 372.821 198.256 372.991 199.279 L 395.209 207.86 L 393.415 203.975 L 442.135 215.637 C 437.263 217.725 399.051 197.538 397.652 198.345 L 385.422 181.712 L 433.336 189.535 L 418.353 184.507 L 440.218 190.462 L 427.606 180.527 L 460.747 182.195 L 464.14 177.401 C 461.717 179.824 499.173 188.035 501.583 185.625 C 502.635 187.204 544.463 187.239 543.586 185.923 L 571.613 195.816 L 553.912 181.965 L 634.55 198.29 L 659.627 200.269 L 685.195 201.258 L 720.106 210.657 L 751.469 215.097 L 750.369 443.721 L 147.306 441.685 L 148.394 315.245 Z" style="fill: rgb(126, 154, 75); stroke-width: 0px;"/>
    <path style="fill: rgb(102, 123, 70); stroke-width: 0px;" d="M 185.571 398.013 C 186.39 397.473 253.759 443.245 253.72 442.462 L 147.875 441.708 L 148.607 377.94 C 150.34 376.785 189.455 395.423 185.571 398.013 Z"/>
    <path style="fill: rgb(133, 183, 76); stroke-width: 0px;" d="M 233.421 394.614 C 232.829 396.39 259.157 402.952 259.52 401.864 C 257.073 398.54 276.255 415.048 280.907 416.364 C 279.441 417.83 302.35 425.369 302.656 425.063 C 287.946 417.345 319.146 435.601 334.192 439.925 C 349.238 444.249 555.307 442.463 555.307 442.463 C 555.937 436.789 608.18 418.626 607.868 421.438 C 608.141 419.803 651.3 422.562 650.641 426.513 C 651.193 425.961 680.775 439.877 683.265 442.099 L 748.15 442.825 C 747.047 444.664 673.518 407.539 669.49 404.764 C 665.462 401.989 649.163 394.36 640.854 380.115 C 634.321 368.915 662.772 359.98 658.615 341.692 C 662.251 328.991 606.221 319.282 618.742 318.855 C 642.305 322.965 656.664 324.647 676.015 319.217 C 688.786 318.13 725.753 308.706 720.963 308.706 L 719.514 288.406 C 718.739 289.181 630.287 275.05 631.43 273.907 C 627.883 274.414 566.229 244.643 569.445 244.184 L 544.796 232.222 L 508.185 231.134 C 493.393 227.829 503.802 218.99 509.997 213.372 C 518.636 205.537 497.192 208.195 477.393 210.381 C 460.758 212.218 445.571 210.999 455.129 206.072 C 473.024 196.847 444.653 197.096 426.988 192.348 L 388.927 183.648 L 456.725 215.989 L 447.131 219.486 L 453.087 226.059 L 419.376 221.709 L 471.936 242.371 C 469.834 245.159 270.617 237.591 283.082 239.471 C 296.781 241.537 282.911 279.578 318.911 261.735 C 328.628 256.919 345.268 261.201 351.008 266.181 C 357.789 272.064 333.712 280.368 342.416 284.628 C 353.447 290.027 369.1 288.851 380.458 288.127 C 413.969 285.992 424.725 298.531 423.726 311.968 C 413.365 311.695 413.156 299.383 387.317 298.913 C 358.581 298.391 338.255 292.459 320.973 284.551 C 297.571 273.842 285.875 272.052 282.356 274.632 C 270.494 276.249 279.328 290.721 294.904 304.918 C 312.309 320.784 339.312 336.396 348.328 335.166 C 351.297 342.351 303.836 338.911 269.743 333.866 C 235.959 328.868 210.872 325.155 200.206 331.524 C 196.364 339.5 146.664 322.648 147.041 316.989 L 147.133 338.429 L 166.763 345.831 C 166.251 346.343 173.989 352.337 184.358 359.961 C 192.087 365.643 191.578 361.296 200.543 366.164 C 211.972 372.37 232.997 394.093 233.421 394.614 Z"/>
  </g>
</svg>