<?xml version="1.0" encoding="utf-8"?>
<svg viewBox="425.55 287.889 125.808 62.048" width="125.808" height="62.048" xmlns="http://www.w3.org/2000/svg">
  <g>
    <title>Field 04</title>
    <path style="stroke-linejoin: round; stroke: rgb(58, 110, 54); fill: rgb(51, 192, 51);" d="M 425.55 302.637 C 438.981 307.114 504.543 347.307 507.381 349.937 C 506.556 349.397 547.309 333.197 544.679 333.751 C 551.358 332.503 487.411 298.179 460.98 287.889 L 425.55 302.637 Z"/>
    <line style="stroke-linecap: round; stroke: rgb(58, 110, 54); fill: rgb(51, 192, 51);" x1="428.267" y1="303.42" x2="463.022" y2="288.761"/>
    <line style="stroke-linecap: round; stroke: rgb(58, 110, 54); fill: rgb(51, 192, 51);" x1="465.155" y1="289.793" x2="430.538" y2="304.452"/>
    <line style="stroke-linecap: round; stroke: rgb(58, 110, 54); fill: rgb(51, 192, 51);" x1="432.603" y1="305.829" x2="467.426" y2="290.894"/>
    <line style="stroke-linecap: round; stroke: rgb(58, 110, 54); fill: rgb(51, 192, 51);" x1="469.904" y1="291.651" x2="435.012" y2="306.723"/>
    <line style="stroke-linecap: round; stroke: rgb(58, 110, 54); fill: rgb(51, 192, 51);" x1="437.214" y1="308.031" x2="471.693" y2="292.684"/>
    <line style="stroke-linecap: round; stroke: rgb(58, 110, 54); fill: rgb(51, 192, 51);" x1="439.038" y1="308.994" x2="474.067" y2="293.578"/>
    <line style="stroke-linecap: round; stroke: rgb(58, 110, 54); fill: rgb(51, 192, 51);" x1="475.857" y1="294.68" x2="440.965" y2="310.095"/>
    <line style="stroke-linecap: round; stroke: rgb(58, 110, 54); fill: rgb(51, 192, 51);" x1="443.029" y1="311.472" x2="478.197" y2="295.712"/>
    <line style="stroke-linecap: round; stroke: rgb(58, 110, 54); fill: rgb(51, 192, 51);" x1="480.605" y1="296.744" x2="445.438" y2="312.366"/>
    <line style="stroke-linecap: round; stroke: rgb(58, 110, 54); fill: rgb(51, 192, 51);" x1="447.64" y1="313.674" x2="482.946" y2="297.914"/>
    <line style="stroke-linecap: round; stroke: rgb(58, 110, 54); fill: rgb(51, 192, 51);" x1="449.653" y1="314.982" x2="485.027" y2="299.015"/>
    <line style="stroke-linecap: round; stroke: rgb(58, 110, 54); fill: rgb(51, 192, 51);" x1="487.436" y1="300.116" x2="451.924" y2="316.014"/>
    <line style="stroke-linecap: round; stroke: rgb(58, 110, 54); fill: rgb(51, 192, 51);" x1="453.989" y1="317.39" x2="489.638" y2="301.148"/>
    <line style="stroke-linecap: round; stroke: rgb(58, 110, 54); fill: rgb(51, 192, 51);" x1="491.841" y1="302.181" x2="456.192" y2="318.698"/>
    <line style="stroke-linecap: round; stroke: rgb(58, 110, 54); fill: rgb(51, 192, 51);" x1="458.6" y1="319.593" x2="493.767" y2="303.42"/>
    <line style="stroke-linecap: round; stroke: rgb(58, 110, 54); fill: rgb(51, 192, 51);" x1="460.011" y1="320.831" x2="496.004" y2="304.589"/>
    <line style="stroke-linecap: round; stroke: rgb(58, 110, 54); fill: rgb(51, 192, 51);" x1="498.275" y1="305.623" x2="461.869" y2="321.932"/>
    <line style="stroke-linecap: round; stroke: rgb(58, 110, 54); fill: rgb(51, 192, 51);" x1="464.346" y1="323.172" x2="500.271" y2="306.861"/>
    <line style="stroke-linecap: round; stroke: rgb(58, 110, 54); fill: rgb(51, 192, 51);" x1="502.817" y1="307.893" x2="466.067" y2="324.479"/>
    <line style="stroke-linecap: round; stroke: rgb(58, 110, 54); fill: rgb(51, 192, 51);" x1="468.338" y1="325.718" x2="505.089" y2="309.063"/>
    <line style="stroke-linecap: round; stroke: rgb(58, 110, 54); fill: rgb(51, 192, 51);" x1="470.515" y1="327.232" x2="507.059" y2="310.302"/>
    <line style="stroke-linecap: round; stroke: rgb(58, 110, 54); fill: rgb(51, 192, 51);" x1="472.338" y1="328.195" x2="509.294" y2="311.334"/>
    <line style="stroke-linecap: round; stroke: rgb(58, 110, 54); fill: rgb(51, 192, 51);" x1="511.428" y1="312.436" x2="474.265" y2="329.296"/>
    <line style="stroke-linecap: round; stroke: rgb(58, 110, 54); fill: rgb(51, 192, 51);" x1="476.329" y1="330.673" x2="513.493" y2="313.537"/>
    <line style="stroke-linecap: round; stroke: rgb(58, 110, 54); fill: rgb(51, 192, 51);" x1="515.695" y1="314.843" x2="478.6" y2="331.98"/>
    <line style="stroke-linecap: round; stroke: rgb(58, 110, 54); fill: rgb(51, 192, 51);" x1="480.734" y1="333.288" x2="517.898" y2="316.083"/>
    <line style="stroke-linecap: round; stroke: rgb(58, 110, 54); fill: rgb(51, 192, 51);" x1="482.953" y1="334.596" x2="520.117" y2="317.184"/>
    <line style="stroke-linecap: round; stroke: rgb(58, 110, 54); fill: rgb(51, 192, 51);" x1="522.319" y1="318.56" x2="484.812" y2="335.766"/>
    <line style="stroke-linecap: round; stroke: rgb(58, 110, 54); fill: rgb(51, 192, 51);" x1="487.014" y1="337.073" x2="524.521" y2="319.798"/>
    <line style="stroke-linecap: round; stroke: rgb(58, 110, 54); fill: rgb(51, 192, 51);" x1="526.517" y1="320.969" x2="488.804" y2="338.243"/>
    <line style="stroke-linecap: round; stroke: rgb(58, 110, 54); fill: rgb(51, 192, 51);" x1="490.662" y1="339.276" x2="528.65" y2="322.07"/>
    <line style="stroke-linecap: round; stroke: rgb(58, 110, 54); fill: rgb(51, 192, 51);" x1="492.554" y1="340.514" x2="530.543" y2="323.102"/>
    <line style="stroke-linecap: round; stroke: rgb(58, 110, 54); fill: rgb(51, 192, 51);" x1="532.745" y1="324.273" x2="494.206" y2="341.821"/>
    <line style="stroke-linecap: round; stroke: rgb(58, 110, 54); fill: rgb(51, 192, 51);" x1="496.477" y1="342.992" x2="534.741" y2="325.718"/>
    <line style="stroke-linecap: round; stroke: rgb(58, 110, 54); fill: rgb(51, 192, 51);" x1="536.668" y1="326.819" x2="498.472" y2="344.093"/>
    <line style="stroke-linecap: round; stroke: rgb(58, 110, 54); fill: rgb(51, 192, 51);" x1="500.193" y1="345.401" x2="538.527" y2="328.058"/>
    <line style="stroke-linecap: round; stroke: rgb(58, 110, 54); fill: rgb(51, 192, 51);" x1="502.594" y1="346.777" x2="540.445" y2="329.228"/>
    <line style="stroke-linecap: round; stroke: rgb(58, 110, 54); fill: rgb(51, 192, 51);" x1="504.383" y1="347.878" x2="541.959" y2="330.466"/>
    <line style="stroke-linecap: round; stroke: rgb(58, 110, 54); fill: rgb(51, 192, 51);" x1="506.104" y1="348.979" x2="543.749" y2="331.843"/>
  </g>
</svg>