<?xml version="1.0" encoding="utf-8"?>
<svg viewBox="483.104 189.193 129.811 52.652" width="129.811" height="52.652" xmlns="http://www.w3.org/2000/svg">
  <g transform="matrix(1, 0, 0, 1, 0.810536, 0.270179)">
    <title>Field 06</title>
    <path style="stroke-linejoin: round; stroke: rgb(55, 109, 5); fill: rgb(51, 200, 49);" d="M 482.293 197.191 C 484.609 205.025 556.157 235.242 562.989 241.575 C 567.177 240.262 606.581 224.128 612.104 221.436 C 602.674 220.568 527.489 198.038 522.097 188.923 L 482.293 197.191 Z"/>
    <line x1="484.251" y1="199.386" x2="523.6673241149978" y2="190.7299599137955" style="stroke: rgb(55, 109, 5); fill: rgb(51, 200, 49);"/>
    <line x1="486.95" y1="201.649" x2="525.74" y2="192.234" style="stroke: rgb(55, 109, 5); fill: rgb(51, 200, 49);"/>
    <line x1="489.63" y1="203.281" x2="528.012" y2="193.358" style="stroke: rgb(55, 109, 5); fill: rgb(51, 200, 49);"/>
    <line x1="561.817" y1="240.496" x2="609.031079608814" y2="220.9110776671518" style="stroke: rgb(55, 109, 5); fill: rgb(51, 200, 49);"/>
    <line x1="559.346" y1="239.011" x2="605.3455965828266" y2="220.0146088229927" style="stroke: rgb(55, 109, 5); fill: rgb(51, 200, 49);"/>
    <line x1="557.235" y1="237.735" x2="601.3612906087861" y2="219.1181399788336" style="stroke: rgb(55, 109, 5); fill: rgb(51, 200, 49);"/>
    <line x1="554.774" y1="236.63" x2="597.9746305308518" y2="218.0224558359725" style="stroke: rgb(55, 109, 5); fill: rgb(51, 200, 49);"/>
    <line x1="552.0933981967231" y1="235.0209006387196" x2="594.2412805071348" y2="217.18910427662234" style="stroke: rgb(55, 109, 5); fill: rgb(51, 200, 49);"/>
    <line x1="591.0891952916126" y1="216.1984489231725" x2="549.392" y2="233.94" style="stroke: rgb(55, 109, 5); fill: rgb(51, 200, 49);"/>
    <line x1="547.0500618518874" y1="232.40917288871546" x2="588.2973483864357" y2="215.297853147309" style="stroke: rgb(55, 109, 5); fill: rgb(51, 200, 49);"/>
    <line x1="584.8750844381544" y1="214.3972573714455" x2="544.528" y2="231.058" style="stroke: rgb(55, 109, 5); fill: rgb(51, 200, 49);"/>
    <line x1="541.8266063518793" y1="229.88750471629766" x2="580.642284291596" y2="213.22648286282296" style="stroke: rgb(55, 109, 5); fill: rgb(51, 200, 49);"/>
    <line x1="576.8597820329693" y1="211.96564877661405" x2="539.935" y2="228.896" style="stroke: rgb(55, 109, 5); fill: rgb(51, 200, 49);"/>
    <line x1="537.772" y1="227.905" x2="574.338" y2="210.975" style="stroke: rgb(55, 109, 5); fill: rgb(51, 200, 49);"/>
    <line x1="492.384" y1="204.941" x2="529.938742110481" y2="194.40403114727584" style="stroke: rgb(55, 109, 5); fill: rgb(51, 200, 49);"/>
    <line x1="495.4459238949091" y1="206.4720145438467" x2="531.8299932397944" y2="195.214567345553" style="stroke: rgb(55, 109, 5); fill: rgb(51, 200, 49);"/>
    <line x1="497.69741333456784" y1="207.82290820764197" x2="533.541" y2="196.205" style="stroke: rgb(55, 109, 5); fill: rgb(51, 200, 49);"/>
    <line x1="500.0389623518129" y1="209.08374229385086" x2="535.703" y2="197.286" style="stroke: rgb(55, 109, 5); fill: rgb(51, 200, 49);"/>
    <line x1="503.01092841216246" y1="210.7948742679915" x2="538.4944019811843" y2="198.36665256107523" style="stroke: rgb(55, 109, 5); fill: rgb(51, 200, 49);"/>
    <line x1="506.3431327828574" y1="212.4159466645458" x2="540.3856531104976" y2="199.26724833693874" style="stroke: rgb(55, 109, 5); fill: rgb(51, 200, 49);"/>
    <line x1="542.8172617053291" y1="199.98772495762952" x2="509.2250392656206" y2="213.94695948351375" style="stroke: rgb(55, 109, 5); fill: rgb(51, 200, 49);"/>
    <line x1="512.3771244811428" y1="215.38791272489536" x2="544.1681553691243" y2="200.7982611559067" style="stroke: rgb(55, 109, 5); fill: rgb(51, 200, 49);"/>
    <line x1="514.4484947656289" y1="216.64874681110425" x2="546.6898235415421" y2="201.51873777659748" style="stroke: rgb(55, 109, 5); fill: rgb(51, 200, 49);"/>
    <line x1="517.330401248392" y1="217.4592830093814" x2="548.1307767829237" y2="202.59945270763367" style="stroke: rgb(55, 109, 5); fill: rgb(51, 200, 49);"/>
    <line x1="519.4918311104644" y1="218.99029582834933" x2="551.0126832656869" y2="203.31992932832446" style="stroke: rgb(55, 109, 5); fill: rgb(51, 200, 49);"/>
    <line x1="522.463797170814" y1="220.16107033697187" x2="553.9846493260364" y2="204.31058468177432" style="stroke: rgb(55, 109, 5); fill: rgb(51, 200, 49);"/>
    <line x1="530.659" y1="224.304" x2="562.2701304639806" y2="207.10243158695118" style="stroke: rgb(55, 109, 5); fill: rgb(51, 200, 49);"/>
    <line x1="525.616" y1="222.052" x2="556.596" y2="205.121" style="stroke: rgb(55, 109, 5); fill: rgb(51, 200, 49);"/>
    <line x1="534.0814826794532" y1="226.01494288008462" x2="567.4035263864025" y2="208.99368271626452" style="stroke: rgb(55, 109, 5); fill: rgb(51, 200, 49);"/>
    <line x1="532.2802911277262" y1="225.29446625939383" x2="564.7017390588121" y2="207.82290820764197" style="stroke: rgb(55, 109, 5); fill: rgb(51, 200, 49);"/>
    <line x1="535.883" y1="227.006" x2="570.3754924467521" y2="209.89427849212802" style="stroke: rgb(55, 109, 5); fill: rgb(51, 200, 49);"/>
    <line x1="528.5878484466858" y1="223.40321513008047" x2="559.5683431363901" y2="206.1117762335013" style="stroke: rgb(55, 109, 5); fill: rgb(51, 200, 49);"/>
  </g>
</svg>