<?xml version="1.0" encoding="utf-8"?>
<svg viewBox="371.796 319.879 43.623 35.835" width="43.623" height="35.835" xmlns="http://www.w3.org/2000/svg">
  <g transform="matrix(1, 0, 0, 1, 0.330814, 0)">
    <title>Field 02</title>
    <path style="stroke-linejoin: round; fill: rgb(51, 150, 99); stroke: rgb(51, 109, 58); stroke-linecap: round;" d="M 371.834 349.652 L 391.6 319.879 L 415.088 320.954 L 414.84 353.87 C 414.549 355.714 371.465 351.986 371.834 349.652 Z"/>
    <line x1="414.592" y1="351.72" x2="373.158" y2="348.163" style="stroke: rgb(51, 109, 58); stroke-linecap: round;"/>
    <line x1="374.729" y1="346.013" x2="414.84" y2="349.073" style="stroke: rgb(51, 109, 58); stroke-linecap: round;"/>
    <line x1="414.592" y1="346.509" x2="375.887" y2="344.028" style="stroke: rgb(51, 109, 58); stroke-linecap: round;"/>
    <line x1="414.592" y1="344.194" x2="377.458" y2="341.961" style="stroke: rgb(51, 109, 58); stroke-linecap: round;"/>
    <line x1="414.509" y1="341.878" x2="378.864" y2="339.81" style="stroke: rgb(51, 109, 58); stroke-linecap: round;"/>
    <line x1="414.509" y1="339.645" x2="380.518" y2="337.577" style="stroke: rgb(51, 109, 58); stroke-linecap: round;"/>
    <line x1="414.84" y1="337.991" x2="381.511" y2="335.923" style="stroke: rgb(51, 109, 58); stroke-linecap: round;"/>
    <line x1="414.427" y1="335.84" x2="382.917" y2="334.103" style="stroke: rgb(51, 109, 58); stroke-linecap: round;"/>
    <line x1="384.323" y1="332.284" x2="414.675" y2="333.608" style="stroke: rgb(51, 109, 58); stroke-linecap: round;"/>
    <line x1="414.84" y1="331.871" x2="385.398" y2="330.63" style="stroke: rgb(51, 109, 58); stroke-linecap: round;"/>
    <line x1="386.225" y1="328.811" x2="414.675" y2="330.299" style="stroke: rgb(51, 109, 58); stroke-linecap: round;"/>
    <line x1="414.592" y1="328.645" x2="387.3" y2="327.157" style="stroke: rgb(51, 109, 58); stroke-linecap: round;"/>
    <line x1="388.044" y1="325.75" x2="414.84" y2="327.074" style="stroke: rgb(51, 109, 58); stroke-linecap: round;"/>
    <line x1="414.757" y1="325.42" x2="389.202" y2="324.262" style="stroke: rgb(51, 109, 58); stroke-linecap: round;"/>
    <line x1="390.195" y1="322.691" x2="414.592" y2="323.849" style="stroke: rgb(51, 109, 58); stroke-linecap: round;"/>
    <line x1="414.84" y1="322.36" x2="391.352" y2="321.202" style="stroke: rgb(51, 109, 58); stroke-linecap: round;"/>
  </g>
</svg>