<?xml version="1.0" encoding="utf-8"?>
<svg viewBox="558.363 179.238 75.739 26.252" width="75.739" height="26.252" xmlns="http://www.w3.org/2000/svg">
  <g>
    <title>Field 08</title>
    <path style="stroke: rgb(54, 112, 52); fill: rgb(51, 155, 51);" d="M 558.363 194.383 C 562.38 194.383 603.611 179.238 602.018 179.481 C 599.423 179.349 628.587 183.577 634.102 183.689 C 631.144 188.983 594.817 205.49 595.18 205.078 L 558.363 194.383 Z"/>
    <line x1="564.499" y1="192.887" x2="597.753" y2="203.998" style="stroke: rgb(54, 112, 52); fill: rgb(51, 155, 51);"/>
    <line x1="569.447" y1="191.264" x2="601.078" y2="202.619" style="stroke: rgb(54, 112, 52); fill: rgb(51, 155, 51);"/>
    <line x1="573.34" y1="189.805" x2="603.754" y2="201.159" style="stroke: rgb(54, 112, 52); fill: rgb(51, 155, 51);"/>
    <line x1="577.801" y1="188.264" x2="607.242" y2="199.213" style="stroke: rgb(54, 112, 52); fill: rgb(51, 155, 51);"/>
    <line x1="581.937" y1="187.128" x2="611.459" y2="197.266" style="stroke: rgb(54, 112, 52); fill: rgb(51, 155, 51);"/>
    <line x1="589.236" y1="184.695" x2="618.272" y2="193.86" style="stroke: rgb(54, 112, 52); fill: rgb(51, 155, 51);"/>
    <line x1="584.938" y1="185.912" x2="614.622" y2="195.806" style="stroke: rgb(54, 112, 52); fill: rgb(51, 155, 51);"/>
    <line x1="592.075" y1="183.64" x2="622.084" y2="191.913" style="stroke: rgb(54, 112, 52); fill: rgb(51, 155, 51);"/>
    <line x1="595.481" y1="182.261" x2="626.383" y2="189.318" style="stroke: rgb(54, 112, 52); fill: rgb(51, 155, 51);"/>
    <line x1="598.969" y1="180.721" x2="630.357" y2="186.804" style="stroke: rgb(54, 112, 52); fill: rgb(51, 155, 51);"/>
  </g>
</svg>