<?xml version="1.0" encoding="utf-8"?>
<svg viewBox="598.323 183.721 85.566 33.439" width="85.566" height="33.439" xmlns="http://www.w3.org/2000/svg">
  <g>
    <title>Field 09</title>
    <path style="fill: rgb(97, 199, 51); stroke: rgb(60, 129, 53);" d="M 598.323 206.269 C 605.884 204.152 636.423 187.401 637.415 183.721 C 644.701 184.756 683.878 188.911 683.889 188.912 C 678.517 204.162 661.382 217.16 661.99 215.434 C 662.014 215.43 606.889 204.807 598.323 206.269 Z"/>
    <line style="fill: rgb(97, 199, 51); stroke: rgb(60, 129, 53);" x1="604.761" y1="203.608" x2="664.867" y2="213.625"/>
    <line style="fill: rgb(97, 199, 51); stroke: rgb(60, 129, 53);" x1="608.8" y1="201.75" x2="667.291" y2="211.525"/>
    <line style="fill: rgb(97, 199, 51); stroke: rgb(60, 129, 53);" x1="612.274" y1="200.053" x2="668.987" y2="209.99"/>
    <line style="fill: rgb(97, 199, 51); stroke: rgb(60, 129, 53);" x1="615.748" y1="198.114" x2="670.845" y2="208.051"/>
    <line style="fill: rgb(97, 199, 51); stroke: rgb(60, 129, 53);" x1="619.222" y1="196.337" x2="672.461" y2="206.516"/>
    <line style="fill: rgb(97, 199, 51); stroke: rgb(60, 129, 53);" x1="624.392" y1="193.428" x2="675.208" y2="203.123"/>
    <line style="fill: rgb(97, 199, 51); stroke: rgb(60, 129, 53);" x1="622.049" y1="194.721" x2="673.673" y2="204.981"/>
    <line style="fill: rgb(97, 199, 51); stroke: rgb(60, 129, 53);" x1="627.462" y1="191.57" x2="677.066" y2="200.538"/>
    <line style="fill: rgb(97, 199, 51); stroke: rgb(60, 129, 53);" x1="634.006" y1="187.288" x2="680.863" y2="195.125"/>
    <line style="fill: rgb(97, 199, 51); stroke: rgb(60, 129, 53);" x1="636.268" y1="185.35" x2="682.721" y2="191.813"/>
    <line style="fill: rgb(97, 199, 51); stroke: rgb(60, 129, 53);" x1="631.421" y1="189.147" x2="679.086" y2="198.033"/>
  </g>
</svg>